<svg width="24" height="24" viewBox="0 0 24 24" fill="none" xmlns="http://www.w3.org/2000/svg">
<path fill-rule="evenodd" clip-rule="evenodd" d="M15.541 6.06544C15.4347 6.10864 15.3382 6.17196 15.2569 6.25176C15.1755 6.33137 15.1109 6.42593 15.0668 6.53004C15.0227 6.63416 15 6.74577 15 6.85849C15 6.97121 15.0227 7.08282 15.0668 7.18693C15.1109 7.29104 15.1755 7.38561 15.2569 7.46521L18.8659 11H2.82609C2.607 11 2.39688 11.1054 2.24196 11.2929C2.08703 11.4804 2 11.7348 2 12C2 12.2652 2.08703 12.5196 2.24196 12.7071C2.39688 12.8946 2.607 13 2.82609 13H18.8664L15.2569 16.5352C15.0927 16.6961 15.0005 16.9144 15.0005 17.142C15.0005 17.3695 15.0927 17.5878 15.2569 17.7487C15.4212 17.9096 15.6439 18 15.8762 18C16.1084 18 16.3312 17.9096 16.4954 17.7487L21.7431 12.6069C21.8245 12.5273 21.8891 12.4328 21.9332 12.3287C21.9773 12.2246 22 12.1129 22 12.0002C22 11.8875 21.9773 11.7759 21.9332 11.6718C21.8891 11.5677 21.8245 11.4731 21.7431 11.3935L16.4954 6.25176C16.4142 6.17196 16.3176 6.10864 16.2114 6.06544C16.1051 6.02224 15.9912 6 15.8762 6C15.7611 6 15.6472 6.02224 15.541 6.06544Z" fill="#2B1FA4"/>
</svg>
