<svg width="1920" height="940" viewBox="0 0 1920 940" fill="none" xmlns="http://www.w3.org/2000/svg">
<path d="M664.49 240.545L508.289 384.177L462 177.087L664.49 240.545Z" fill="url(#paint0_linear)"/>
<rect x="1693.64" width="135.71" height="190.607" transform="rotate(48.4484 1693.64 0)" fill="url(#paint1_linear)"/>
<rect x="404.165" y="390.681" width="103.133" height="196.973" transform="rotate(107.943 404.165 390.681)" fill="url(#paint2_linear)"/>
<g filter="url(#filter0_f)">
<rect x="110.245" y="619" width="146.771" height="280.316" transform="rotate(43.1956 110.245 619)" fill="url(#paint3_linear)"/>
</g>
<path d="M1411.19 397.19L1465.33 619.191L1246 555.081L1411.19 397.19Z" fill="url(#paint4_linear)"/>
<g filter="url(#filter1_f)">
<circle cx="1908.5" cy="500.5" r="92.5" fill="url(#paint5_linear)"/>
</g>
<defs>
<filter id="filter0_f" x="-97.6294" y="603" width="330.873" height="336.82" filterUnits="userSpaceOnUse" color-interpolation-filters="sRGB">
<feFlood flood-opacity="0" result="BackgroundImageFix"/>
<feBlend mode="normal" in="SourceGraphic" in2="BackgroundImageFix" result="shape"/>
<feGaussianBlur stdDeviation="8" result="effect1_foregroundBlur"/>
</filter>
<filter id="filter1_f" x="1800" y="392" width="217" height="217" filterUnits="userSpaceOnUse" color-interpolation-filters="sRGB">
<feFlood flood-opacity="0" result="BackgroundImageFix"/>
<feBlend mode="normal" in="SourceGraphic" in2="BackgroundImageFix" result="shape"/>
<feGaussianBlur stdDeviation="8" result="effect1_foregroundBlur"/>
</filter>
<linearGradient id="paint0_linear" x1="664.49" y1="240.545" x2="485.144" y2="280.632" gradientUnits="userSpaceOnUse">
<stop stop-color="#6FD6FE"/>
<stop offset="1" stop-color="#A8A1ED"/>
</linearGradient>
<linearGradient id="paint1_linear" x1="1761.5" y1="0" x2="1761.5" y2="190.607" gradientUnits="userSpaceOnUse">
<stop stop-color="#6FD6FE"/>
<stop offset="1" stop-color="#A8A1ED"/>
</linearGradient>
<linearGradient id="paint2_linear" x1="455.732" y1="390.681" x2="455.732" y2="587.654" gradientUnits="userSpaceOnUse">
<stop stop-color="#6FD6FE"/>
<stop offset="1" stop-color="#A8A1ED"/>
</linearGradient>
<linearGradient id="paint3_linear" x1="183.63" y1="619" x2="183.63" y2="899.317" gradientUnits="userSpaceOnUse">
<stop stop-color="#6FD6FE"/>
<stop offset="1" stop-color="#A8A1ED"/>
</linearGradient>
<linearGradient id="paint4_linear" x1="1411.19" y1="397.19" x2="1355.67" y2="587.136" gradientUnits="userSpaceOnUse">
<stop stop-color="#6FD6FE"/>
<stop offset="1" stop-color="#A8A1ED"/>
</linearGradient>
<linearGradient id="paint5_linear" x1="1908.5" y1="408" x2="1908.5" y2="593" gradientUnits="userSpaceOnUse">
<stop stop-color="#6FD6FE"/>
<stop offset="1" stop-color="#A8A1ED"/>
</linearGradient>
</defs>
</svg>
