<svg xmlns="http://www.w3.org/2000/svg" viewBox="0 0 808.12 508"><defs><style>.cls-1{fill:#cfa184;}.cls-2{fill:#d58a6b;}.cls-3{fill:#c77a5d;}.cls-4{fill:#cf8165;}.cls-5{fill:#d18066;}.cls-6{fill:#c2654c;}.cls-7{fill:#c6715a;}.cls-8{fill:#cb765e;}.cls-9{fill:#d39792;}.cls-10{fill:#d68f74;}.cls-11{fill:#d99370;}.cls-12{fill:#c76e56;}.cls-13{fill:#ca7e61;}.cls-14{fill:#d97f5d;}.cls-15{fill:#b56d51;}.cls-16{fill:#cd8b7d;}.cls-17{fill:#b85d4c;}.cls-18{fill:#ca8777;}.cls-19{fill:#b76d5e;}.cls-20{fill:#c68272;}.cls-21{fill:#a35b51;}.cls-22{fill:#c26a5a;}.cls-23{fill:#cb7866;}.cls-24{fill:#c37569;}.cls-25{fill:#b04a44;}.cls-26{fill:#c06e65;}.cls-27{fill:#d58a6a;}.cls-28{fill:#c1735e;}.cls-29{fill:#c9755f;}.cls-30{fill:#c2946e;}.cls-31{fill:#c57863;}.cls-32{fill:#b17961;}.cls-33{fill:#bd8062;}.cls-34{fill:#c97457;}.cls-35{fill:#d29882;}.cls-36{fill:#c77558;}.cls-37{fill:#c58f6a;}.cls-38{fill:#d07d5c;}.cls-39{fill:#c7926d;}.cls-40{fill:#b9816c;}.cls-41{fill:#d19a72;}.cls-42{fill:#ca9571;}.cls-43{fill:#ad6d5d;}.cls-44{fill:#c77652;}.cls-45{fill:#c8936a;}.cls-46{fill:#d48f6d;}.cls-47{fill:#d48d6d;}.cls-48{fill:#bb896d;}.cls-49{fill:#c19073;}.cls-50{fill:#c89778;}.cls-51{fill:#ce9c7c;}.cls-52{fill:#c99876;}.cls-53{fill:#c57f5f;}.cls-54{fill:#d48872;}.cls-55{fill:#b8685c;}.cls-56{fill:#c47f73;}.cls-57{fill:#ca7465;}.cls-58{fill:#db9f93;}.cls-59{fill:#9c5646;}.cls-60{fill:#d79276;}.cls-61{fill:#bd7962;}.cls-62{fill:#be7564;}.cls-63{fill:#d99579;}.cls-64{fill:#b86c5c;}.cls-65{fill:#cd8169;}.cls-66{fill:#944f46;}.cls-67{fill:#dfa190;}.cls-68{fill:#a53f35;}.cls-69{fill:#b25f53;}.cls-70{fill:#a36055;}.cls-71{fill:#c37163;}.cls-72{fill:#d6957f;}.cls-73{fill:#d69285;}.cls-74{fill:#ce8878;}.cls-75{fill:#c57c70;}.cls-76{fill:#c27c6e;}.cls-77{fill:#c6776b;}.cls-78{fill:#994646;}.cls-79{fill:#9c493e;}.cls-80{fill:#b4665c;}.cls-81{fill:#ab453e;}.cls-82{fill:#9e4242;}.cls-83{fill:#c9857a;}.cls-84{fill:#913c36;}.cls-85{fill:#b16159;}.cls-86{fill:#9e4339;}.cls-87{fill:#d68c81;}.cls-88{fill:#cd8373;}.cls-89{fill:#9c4232;}.cls-90{fill:#b9594c;}.cls-91{fill:#db9f83;}.cls-92{fill:#87322f;}.cls-93{fill:#bd7160;}.cls-94{fill:#c07569;}.cls-95{fill:#bf6f61;}.cls-96{fill:#c87e6a;}.cls-97{fill:#ce8874;}.cls-98{fill:#c1715b;}.cls-99{fill:#8f342e;}.cls-100{fill:#70362f;}.cls-101{fill:#a34c49;}.cls-102{fill:#a85e52;}.cls-103{fill:#c0715c;}.cls-104{fill:#914141;}.cls-105{fill:#912d2d;}.cls-106{fill:#803933;}.cls-107{fill:#942f2f;}.cls-108{fill:#8f4045;}.cls-109{fill:#8f3429;}.cls-110{fill:#9e4045;}.cls-111{fill:#9c4f4f;}.cls-112{fill:#c57972;}.cls-113{fill:#b56e69;}.cls-114{fill:#964541;}.cls-115{fill:#9e4747;}.cls-116{fill:#963636;}.cls-117{fill:#996051;}.cls-118{fill:#bba086;}.cls-119{fill:#cea986;}.cls-120{fill:#b58069;}.cls-121{fill:#bf8d77;}.cls-122{fill:#7d2e2c;}.cls-123{fill:#b05652;}.cls-124{fill:#753d3f;}.cls-125{fill:#96312a;}.cls-126{fill:#d1ae8c;}.cls-127{fill:#873331;}.cls-128{fill:#bb605b;}.cls-129{fill:#8f322f;}.cls-130{fill:#9c3f3c;}.cls-131{fill:#993431;}.cls-132{fill:#9e3939;}.cls-133{fill:#b25651;}.cls-134{fill:#a84741;}.cls-135{fill:#a33636;}.cls-136{fill:#ae574f;}.cls-137{fill:#a3463e;}.cls-138{fill:#993232;}.cls-139{fill:#943b36;}.cls-140{fill:#9e342e;}.cls-141{fill:#be6462;}.cls-142{fill:#a63c33;}.cls-143{fill:#a73e32;}.cls-144{fill:#b14f4c;}.cls-145{fill:#b35d55;}.cls-146{fill:#993e39;}.cls-147{fill:#b1544c;}.cls-148{fill:#b65050;}.cls-149{fill:#b55957;}.cls-150{fill:#803333;}.cls-151{fill:#8f3331;}.cls-152{fill:#a94a3c;}.cls-153{fill:#993c34;}.cls-154{fill:#823131;}.cls-155{fill:#c07369;}.cls-156{fill:#d07e6d;}.cls-157{fill:#d6937d;}.cls-158{fill:#ce7a64;}.cls-159{fill:#c79673;}.cls-160{fill:#d38675;}.cls-161{fill:#cc8576;}.cls-162{fill:#c97e65;}.cls-163{fill:#c97d6f;}.cls-164{fill:#c98271;}.cls-165{fill:#c67969;}.cls-166{fill:#be7364;}.cls-167{fill:#d18360;}.cls-168{fill:#d58c6c;}.cls-169{fill:#ce7a5e;}.cls-170{fill:#ce7f5a;}.cls-171{fill:#c7705a;}.cls-172{fill:#c8745d;}.cls-173{fill:#c26b5b;}.cls-174{fill:#b77e67;}.cls-175{fill:#cf7c60;}.cls-176{fill:#c7755a;}.cls-177{fill:#c59870;}.cls-178{fill:#d38679;}.cls-179{fill:#cd8571;}.cls-180{fill:#cc7d6b;}.cls-181{fill:#d08677;}.cls-182{fill:#cf8778;}.cls-183{fill:#c2705d;}.cls-184{fill:#cc8472;}.cls-185{fill:#c47464;}.cls-186{fill:#c7696c;}.cls-187{fill:#ba6c6c;}.cls-188{fill:#cd8277;}.cls-189{fill:#be6b64;}.cls-190{fill:#b9675a;}.cls-191{fill:#d69d85;}.cls-192{fill:#ca7f6d;}.cls-193{fill:#ce8876;}.cls-194{fill:#c77f6d;}.cls-195{fill:#d1807e;}.cls-196{fill:#c26c6a;}.cls-197{fill:#c26865;}.cls-198{fill:#c06563;}.cls-199{fill:#ce7d72;}.cls-200{fill:#d27e78;}.cls-201{fill:#ca775e;}.cls-202{fill:#a43b36;}.cls-203{fill:#944848;}.cls-204{fill:#9c4343;}.cls-205{fill:#9e3a3a;}.cls-206{fill:#9e4345;}.cls-207{fill:#a14346;}.cls-208{fill:#8f3e43;}.cls-209{fill:#cc7874;}.cls-210{fill:#cf8d82;}.cls-211{fill:#c78079;}.cls-212{fill:#873c3a;}.cls-213{fill:#9c3b3b;}.cls-214{fill:#d6a39c;}.cls-215{fill:#d58b89;}.cls-216{fill:#d08d7d;}.cls-217{fill:#db9a8f;}.cls-218{fill:#d4a39c;}.cls-219{fill:#c97c73;}.cls-220{fill:#daaea1;}.cls-221{fill:#8f3b38;}.cls-222{fill:#ba5c59;}.cls-223{fill:#c6796d;}.cls-224{fill:#c17266;}.cls-225{fill:#be7268;}.cls-226{fill:#c2766a;}.cls-227{fill:#c3726b;}.cls-228{fill:#8a3333;}.cls-229{fill:#bc746c;}.cls-230{fill:#91403d;}.cls-231{fill:#993939;}.cls-232{fill:#753638;}.cls-233{fill:#cd8775;}.cls-234{fill:#d18b80;}.cls-235{fill:#b46159;}.cls-236{fill:#d99c85;}.cls-237{fill:#d79882;}.cls-238{fill:#bc7765;}.cls-239{fill:#cc877a;}.cls-240{fill:#c67f76;}.cls-241{fill:#dda18a;}.cls-242{fill:#dea28b;}.cls-243{fill:#d49a86;}.cls-244{fill:#ddb99b;}.cls-245{fill:#d69b85;}.cls-246{fill:#d6a38c;}.cls-247{fill:#dca88a;}.cls-248{fill:#9e5449;}.cls-249{fill:#9c453b;}.cls-250{fill:#ab5a54;}.cls-251{fill:#a1433b;}.cls-252{fill:#ad4e4b;}.cls-253{fill:#bf6f63;}.cls-254{fill:#91493f;}.cls-255{fill:#b05850;}.cls-256{fill:#9f453e;}.cls-257{fill:#a64f4c;}.cls-258{fill:#a54542;}.cls-259{fill:#9e423f;}.cls-260{fill:#cc796b;}.cls-261{fill:#91463d;}.cls-262{fill:#805248;}.cls-263{fill:#c77864;}.cls-264{fill:#8a5950;}.cls-265{fill:#9c5c50;}.cls-266{fill:#a3685a;}.cls-267{fill:#754d48;}.cls-268{fill:#854438;}.cls-269{fill:#b35649;}.cls-270{fill:#b36252;}.cls-271{fill:#af5f4c;}.cls-272{fill:#874f47;}.cls-273{fill:#96564c;}.cls-274{fill:#6b513c;}.cls-275{fill:#80634b;}.cls-276{fill:#a68d72;}.cls-277{fill:#7d4d44;}.cls-278{fill:#be746b;}.cls-279{fill:#ad826e;}.cls-280{fill:#8d6b51;}.cls-281{fill:#b0665b;}.cls-282{fill:#a96a4f;}.cls-283{fill:#8a664e;}.cls-284{fill:#9a5e48;}.cls-285{fill:#d9997f;}.cls-286{fill:#c8887f;}.cls-287{fill:#cc7d69;}.cls-288{fill:#d18e78;}.cls-289{fill:#d59489;}.cls-290{fill:#b27065;}.cls-291{fill:#b5817c;}.cls-292{fill:#d17b74;}.cls-293{fill:#cc8876;}.cls-294{fill:#ae5245;}.cls-295{fill:#b96b61;}.cls-296{fill:#a75852;}.cls-297{fill:#b46660;}.cls-298{fill:#a65c63;}.cls-299{fill:#ad4747;}.cls-300{fill:#9e4b4f;}.cls-301{fill:#a65249;}.cls-302{fill:#cd7773;}.cls-303{fill:#c78982;}.cls-304{fill:#c57976;}.cls-305{fill:#cf8178;}.cls-306{fill:#c57774;}.cls-307{fill:#c47268;}.cls-308{fill:#d1907e;}.cls-309{fill:#b0725b;}.cls-310{fill:#d29987;}.cls-311{fill:#d3b093;}.cls-312{fill:#c68d76;}.cls-313{fill:#bc7e6c;}.cls-314{fill:#bd6d5e;}.cls-315{fill:#ba7260;}.cls-316{fill:#c98676;}.cls-317{fill:#d49888;}.cls-318{fill:#965549;}.cls-319{fill:#b46857;}.cls-320{fill:#ae625d;}.cls-321{fill:#99674e;}.cls-322{fill:#d7aa8e;}.cls-323{fill:#dfaa9e;}.cls-324{fill:#d1aa86;}.cls-325{fill:#cfa686;}.cls-326{fill:#d5b79b;}.cls-327{fill:#8f5947;}.cls-328{fill:#ca9b7d;}.cls-329{fill:#a35d4b;}.cls-330{fill:#c78573;}.cls-331{fill:#c49177;}.cls-332{fill:#cd8f7f;}.cls-333{fill:#8c3a34;}.cls-334{fill:#943734;}.cls-335{fill:#872e31;}.cls-336{fill:#913333;}.cls-337{fill:#993d37;}.cls-338{fill:#bd685a;}.cls-339{fill:#b85a4b;}.cls-340{fill:#b44b3f;}.cls-341{fill:#963630;}.cls-342{fill:#963933;}.cls-343{fill:#b55045;}.cls-344{fill:#993d34;}.cls-345{fill:#c67163;}.cls-346{fill:#c17064;}.cls-347{fill:#c26d5f;}.cls-348{fill:#c37067;}.cls-349{fill:#c87970;}.cls-350{fill:#c67567;}.cls-351{fill:#c57368;}.cls-352{fill:#9e4949;}.cls-353{fill:#ba665c;}.cls-354{fill:#b66758;}.cls-355{fill:#cb9f7e;}.cls-356{fill:#da9a80;}.cls-357{fill:#d38567;}.cls-358{fill:#d18968;}.cls-359{fill:#d49078;}.cls-360{fill:#d5a985;}.cls-361{fill:#d28e76;}.cls-362{fill:#d8957a;}.cls-363{fill:#cf8c6e;}.cls-364{fill:#dca085;}.cls-365{fill:#d59c80;}.cls-366{fill:#d69375;}.cls-367{fill:#d8987a;}.cls-368{fill:#d28172;}.cls-369{fill:#dc9c85;}.cls-370{fill:#bd715e;}.cls-371{fill:#bc6f6a;}.cls-372{fill:#d5937e;}.cls-373{fill:#c77871;}.cls-374{fill:#d08971;}.cls-375{fill:#ddb291;}.cls-376{fill:#dfa796;}.cls-377{fill:#d1897e;}.cls-378{fill:#dba293;}.cls-379{fill:#d38169;}.cls-380{fill:#d48e70;}.cls-381{fill:#d99577;}.cls-382{fill:#d08d79;}.cls-383{fill:#d79073;}.cls-384{fill:#da9a7e;}.cls-385{fill:#dd9279;}.cls-386{fill:#cd906f;}.cls-387{fill:#d0ad91;}.cls-388{fill:#ce9e7c;}.cls-389{fill:#d3ae8f;}.cls-390{fill:#d4a382;}.cls-391{fill:#d4a380;}.cls-392{fill:#d98b71;}.cls-393{fill:#cf8a76;}.cls-394{fill:#d1a280;}.cls-395{fill:#cb6c56;}.cls-396{fill:#cb745c;}.cls-397{fill:#d48a72;}.cls-398{fill:#d68d75;}.cls-399{fill:#e0b8a2;}.cls-400{fill:#d48d6c;}.cls-401{fill:#d3a083;}.cls-402{fill:#d2886e;}.cls-403{fill:#bf775c;}.cls-404{fill:#c76a51;}.cls-405{fill:#de9c8b;}.cls-406{fill:#dc9c87;}.cls-407{fill:#964341;}</style></defs><title>Asset 2</title><g id="Layer_2" data-name="Layer 2"><g id="Layer_1-2" data-name="Layer 1"><polygon class="cls-1" points="737.96 100.76 667.62 131.66 688.41 80.51 644.15 73.8 700.43 44.34 729.94 9.45 650.69 42.36 617.77 63.32 590.73 92.14 540.72 119.97 495.18 134.28 413.91 159.53 356.3 168.2 331.46 173.87 288.9 193.8 238.56 208.74 214.94 206.45 196.02 207.3 178.46 214.16 155.75 219.51 127.98 228.65 96.73 238.26 69.39 241.68 54.56 246.86 37.21 249.6 18.64 254.87 14.91 258.99 14.36 273.76 25.34 282.93 43.34 289.19 75.41 291.01 53.88 305.78 36.18 318.01 0 339.29 0.42 348.3 6.83 363.23 23.71 368.19 50.85 366.48 75.16 352.36 95.78 336.28 128.36 318.89 139.08 313.67 123.34 334.85 113.42 350.87 91.87 376.5 96.99 386.04 111.53 395.25 131.4 388.94 145.04 379.46 150.73 365.41 169.78 341.76 195.56 318.5 213.6 298.85 253.63 281.78 234.76 298.11 225.14 310.89 213.04 322.06 200.75 339.89 179.35 356.43 180.01 366.03 195.25 373.97 215.8 368.16 231.09 350.13 251 333.75 282.68 308.32 306.79 291.68 364 312.57 411.38 334.51 401.56 356.76 384.56 377.95 362.96 390.4 352.19 399.02 330.46 414.9 311.03 441.31 298.79 468.64 298.18 489.49 305.44 504.89 317.42 508 337.78 492.2 352.72 472.92 367.28 466.32 380.45 455.6 399.69 449.02 417.33 429.15 448.26 403.88 478.49 387.11 499.7 381.81 517.26 359.25 562.64 331.85 604.7 295.3 640.36 257.14 655.02 233.21 686.12 205.25 705.56 196.11 729.37 174.6 774.69 141.9 715.08 163.58 737.96 100.76"/><polygon class="cls-1" points="737.76 39.44 700.43 44.34 688.41 80.51 737.76 39.44"/><polygon class="cls-1" points="792.73 89.66 753.27 106.61 743.62 132.65 792.73 89.66"/><polygon class="cls-1" points="805.05 123.02 805.6 91.02 771.6 125.12 805.05 123.02"/><polygon class="cls-1" points="808.12 32.46 748.5 88.78 795.11 69.42 808.12 32.46"/><polygon class="cls-1" points="711.33 103.99 748.5 88.78 757.58 47.32 711.33 103.99"/><polygon class="cls-1" points="758.25 0 746.55 18.53 781.1 6.23 758.25 0"/><polygon class="cls-2" points="353.89 195.05 366.02 180.44 344.79 185.49 353.89 195.05"/><polygon class="cls-3" points="266.78 202.85 269.6 207.61 314.32 212.66 266.78 202.85"/><polygon class="cls-4" points="292.88 201.89 266.78 202.85 314.32 212.66 292.88 201.89"/><polygon class="cls-5" points="263.53 210.47 255.81 222.12 314.32 212.66 263.53 210.47"/><polygon class="cls-6" points="255.81 222.12 226.85 227.44 235.61 239.04 255.81 222.12"/><polygon class="cls-7" points="294.24 226.21 255.81 222.12 235.61 239.04 294.24 226.21"/><polygon class="cls-8" points="314.32 212.66 255.81 222.12 294.24 226.21 314.32 212.66"/><polygon class="cls-9" points="124.53 280.43 131 284.65 152.01 281.54 124.53 280.43"/><polygon class="cls-10" points="344.79 185.49 316.85 192.14 353.89 195.05 344.79 185.49"/><polygon class="cls-11" points="366.02 180.44 350.18 175.43 344.79 185.49 366.02 180.44"/><polygon class="cls-12" points="364.15 207.28 292.88 201.89 314.32 212.66 364.15 207.28"/><polygon class="cls-13" points="316.85 192.14 292.88 201.89 364.15 207.28 316.85 192.14"/><polygon class="cls-14" points="353.89 195.05 316.85 192.14 364.15 207.28 353.89 195.05"/><polygon class="cls-15" points="269.6 207.61 263.53 210.47 314.32 212.66 269.6 207.61"/><polygon class="cls-16" points="102.96 301.05 129.61 296.82 120.46 290.88 102.96 301.05"/><polygon class="cls-17" points="235.61 239.04 226.85 227.44 213.1 252.61 235.61 239.04"/><polygon class="cls-18" points="129.61 296.82 156.89 294.26 120.46 290.88 129.61 296.82"/><polygon class="cls-19" points="139.93 272.73 124.53 280.43 152.01 281.54 139.93 272.73"/><polygon class="cls-20" points="120.46 290.88 156.89 294.26 131 284.65 120.46 290.88"/><polygon class="cls-21" points="169.22 303.87 187.6 296.51 174.31 296.5 169.22 303.87"/><polygon class="cls-22" points="226.85 227.44 198.57 235.68 213.1 252.61 226.85 227.44"/><polygon class="cls-23" points="198.57 235.68 168.24 230.66 213.1 252.61 198.57 235.68"/><polygon class="cls-24" points="174.31 296.5 140.23 313.11 169.22 303.87 174.31 296.5"/><polygon class="cls-25" points="161.26 312.17 168.1 316.34 169.22 303.87 161.26 312.17"/><polygon class="cls-26" points="140.23 313.11 139.65 313.4 161.26 312.17 169.22 303.87 140.23 313.11"/><polygon class="cls-27" points="350.18 175.43 316.85 192.14 344.79 185.49 350.18 175.43"/><polygon class="cls-28" points="437.98 218.93 460.12 258.83 476.75 211.86 437.98 218.93"/><polygon class="cls-29" points="400.74 279.96 460.12 258.83 437.98 218.93 400.74 279.96"/><polygon class="cls-30" points="537.02 177.57 476.75 211.86 508.27 256.31 537.02 177.57"/><polygon class="cls-31" points="368.32 272.31 400.74 279.96 437.98 218.93 368.32 272.31"/><polygon class="cls-32" points="460.12 258.83 490.2 304.64 508.27 256.31 460.12 258.83"/><polygon class="cls-33" points="476.75 211.86 460.12 258.83 508.27 256.31 476.75 211.86"/><polygon class="cls-34" points="416.1 208.28 368.32 272.31 437.98 218.93 416.1 208.28"/><polygon class="cls-35" points="331.83 265.78 368.32 272.31 353.63 239.06 331.83 265.78"/><polygon class="cls-36" points="353.63 239.06 368.32 272.31 416.1 208.28 353.63 239.06"/><polygon class="cls-37" points="476.75 211.86 428.33 194.28 437.98 218.93 476.75 211.86"/><polygon class="cls-38" points="391.91 200.78 366.02 180.44 353.89 195.05 391.91 200.78"/><polygon class="cls-39" points="428.33 194.28 416.1 208.28 437.98 218.93 428.33 194.28"/><polygon class="cls-40" points="490.2 304.64 553.82 268.55 508.27 256.31 490.2 304.64"/><polygon class="cls-41" points="474.84 157.66 391.91 200.78 428.33 194.28 474.84 157.66"/><polygon class="cls-42" points="492.8 173.85 474.84 157.66 428.33 194.28 492.8 173.85"/><polygon class="cls-43" points="553.82 268.55 557.63 223.09 508.27 256.31 553.82 268.55"/><polygon class="cls-44" points="364.15 207.28 391.91 200.78 353.89 195.05 364.15 207.28"/><polygon class="cls-45" points="476.75 211.86 492.8 173.85 428.33 194.28 476.75 211.86"/><polygon class="cls-46" points="416.1 208.28 391.91 200.78 364.15 207.28 416.1 208.28"/><polygon class="cls-47" points="428.33 194.28 391.91 200.78 416.1 208.28 428.33 194.28"/><polygon class="cls-48" points="508.27 256.31 557.63 223.09 537.02 177.57 508.27 256.31"/><polygon class="cls-49" points="557.63 223.09 609.69 179.06 537.02 177.57 557.63 223.09"/><polygon class="cls-50" points="537.02 177.57 492.8 173.85 476.75 211.86 537.02 177.57"/><polygon class="cls-51" points="581.01 124.66 492.8 173.85 537.02 177.57 581.01 124.66"/><polygon class="cls-52" points="609.69 179.06 581.01 124.66 537.02 177.57 609.69 179.06"/><polygon class="cls-53" points="92.63 259.66 84.36 249.55 65.34 268.45 92.63 259.66"/><polygon class="cls-54" points="43.74 262.88 51.04 276.49 65.34 268.45 43.74 262.88"/><polygon class="cls-55" points="69.47 285.2 108.91 285.05 91.41 276.06 69.47 285.2"/><polygon class="cls-56" points="131 284.65 156.89 294.26 152.01 281.54 131 284.65"/><polygon class="cls-57" points="65.34 268.45 69.47 285.2 91.41 276.06 65.34 268.45"/><polygon class="cls-58" points="124.53 280.43 108.91 285.05 131 284.65 124.53 280.43"/><polygon class="cls-59" points="91.41 276.06 108.91 285.05 124.53 280.43 91.41 276.06"/><polygon class="cls-60" points="84.36 249.55 61.89 254.53 65.34 268.45 84.36 249.55"/><polygon class="cls-61" points="91.41 276.06 92.63 259.66 65.34 268.45 91.41 276.06"/><polygon class="cls-62" points="124.53 280.43 92.63 259.66 91.41 276.06 124.53 280.43"/><polygon class="cls-63" points="61.89 254.53 43.74 262.88 65.34 268.45 61.89 254.53"/><polygon class="cls-64" points="115.95 260.62 92.63 259.66 124.53 280.43 115.95 260.62"/><polygon class="cls-65" points="325.56 239.69 331.83 265.78 353.63 239.06 325.56 239.69"/><polygon class="cls-16" points="131 284.65 108.91 285.05 108.48 285.25 120.46 290.88 131 284.65"/><polygon class="cls-66" points="141.51 300.84 139.27 313.42 156.89 294.26 141.51 300.84"/><polygon class="cls-67" points="108.48 285.25 85.3 295.95 120.46 290.88 108.48 285.25"/><polygon class="cls-68" points="174.31 296.5 156.89 294.26 139.27 313.42 140.23 313.11 174.31 296.5"/><polygon class="cls-69" points="129.61 296.82 141.51 300.84 156.89 294.26 129.61 296.82"/><polygon class="cls-53" points="140.23 313.11 139.27 313.42 139.65 313.4 140.23 313.11"/><polygon class="cls-53" points="139.27 313.42 139.29 313.57 139.65 313.4 139.27 313.42"/><polygon class="cls-70" points="121.22 307.86 141.51 300.84 129.61 296.82 121.22 307.86"/><polygon class="cls-71" points="138.63 254.96 115.95 260.62 124.53 280.43 138.63 254.96"/><polygon class="cls-72" points="85.3 295.95 61.41 314.06 102.96 301.05 85.3 295.95"/><polygon class="cls-73" points="120.46 290.88 85.3 295.95 102.96 301.05 120.46 290.88"/><polygon class="cls-74" points="61.41 314.06 95.84 315.46 102.96 301.05 61.41 314.06"/><polygon class="cls-75" points="95.84 315.46 121.22 307.86 102.96 301.05 95.84 315.46"/><polygon class="cls-76" points="102.96 301.05 121.22 307.86 129.61 296.82 102.96 301.05"/><polygon class="cls-77" points="51.04 276.49 69.47 285.2 65.34 268.45 51.04 276.49"/><polygon class="cls-78" points="216.66 288.1 226.97 281.36 226.9 281.36 202.99 289.53 216.66 288.1"/><polygon class="cls-79" points="156.89 294.26 174.31 296.5 186.72 285.78 156.89 294.26"/><polygon class="cls-80" points="169.36 284.93 156.89 294.26 186.72 285.78 169.36 284.93"/><polygon class="cls-81" points="187.6 296.51 216.66 288.1 202.99 289.53 187.6 296.51"/><polygon class="cls-82" points="174.31 296.5 187.6 296.51 202.99 289.53 174.31 296.5"/><polygon class="cls-83" points="152.01 281.54 156.89 294.26 169.36 284.93 152.01 281.54"/><polygon class="cls-84" points="186.72 285.78 174.31 296.5 202.99 289.53 186.72 285.78"/><polygon class="cls-85" points="169.25 266.42 152.01 281.54 184.43 280.3 169.25 266.42"/><polygon class="cls-86" points="202.99 289.53 199.36 283.05 186.72 285.78 202.99 289.53"/><polygon class="cls-87" points="184.43 280.3 152.01 281.54 169.36 284.93 184.43 280.3"/><polygon class="cls-88" points="139.65 313.4 139.29 313.57 140.6 321.2 161.26 312.17 139.65 313.4"/><polygon class="cls-89" points="199.36 283.05 184.43 280.3 186.72 285.78 199.36 283.05"/><polygon class="cls-90" points="186.72 285.78 184.43 280.3 169.36 284.93 186.72 285.78"/><polygon class="cls-53" points="155.97 240.49 138.63 254.96 139.93 272.73 155.97 240.49"/><polygon class="cls-91" points="168.24 230.66 155.97 240.49 169.25 266.42 168.24 230.66"/><polygon class="cls-92" points="202.99 289.53 226.9 281.36 226.39 281.35 199.36 283.05 202.99 289.53"/><polygon class="cls-93" points="169.25 266.42 155.97 240.49 152.01 281.54 169.25 266.42"/><polygon class="cls-94" points="152.01 281.54 155.97 240.49 139.93 272.73 152.01 281.54"/><polygon class="cls-95" points="139.93 272.73 138.63 254.96 124.53 280.43 139.93 272.73"/><polygon class="cls-96" points="213.1 252.61 168.24 230.66 190.71 255.3 213.1 252.61"/><polygon class="cls-97" points="190.71 255.3 168.24 230.66 169.25 266.42 190.71 255.3"/><polygon class="cls-98" points="205.02 268.92 213.1 252.61 190.71 255.3 205.02 268.92"/><polygon class="cls-99" points="199.36 283.05 202.41 280.25 184.43 280.3 199.36 283.05"/><polygon class="cls-100" points="226.39 281.35 216.35 281.19 202.41 280.25 199.36 283.05 226.39 281.35"/><polygon class="cls-101" points="202.41 280.25 205.02 268.92 190.71 255.3 202.41 280.25"/><polygon class="cls-102" points="184.43 280.3 202.41 280.25 190.71 255.3 184.43 280.3"/><polygon class="cls-103" points="190.71 255.3 169.25 266.42 184.43 280.3 190.71 255.3"/><polygon class="cls-104" points="231.09 350.13 251 333.75 234.77 335.96 231.09 350.13"/><polygon class="cls-105" points="207.82 362.18 215.8 368.16 220.26 348.88 207.82 362.18"/><polygon class="cls-106" points="215.8 368.16 231.09 350.13 220.26 348.88 215.8 368.16"/><polygon class="cls-107" points="220.26 348.88 231.09 350.13 234.77 335.96 220.26 348.88"/><polygon class="cls-108" points="234.77 335.96 251 333.75 243.3 322.19 234.77 335.96"/><polygon class="cls-109" points="243.3 322.19 251 333.75 264.32 312.45 243.3 322.19"/><polygon class="cls-110" points="190.58 359.08 195.25 373.97 207.82 362.18 190.58 359.08"/><polygon class="cls-53" points="317.64 491.19 329.51 479.67 306.78 475.42 317.64 491.19"/><polygon class="cls-111" points="179.35 356.43 180.01 366.03 190.58 359.08 179.35 356.43"/><polygon class="cls-112" points="200.75 339.89 179.35 356.43 195.2 350.06 200.75 339.89"/><polygon class="cls-113" points="180.01 366.03 195.25 373.97 190.58 359.08 180.01 366.03"/><polygon class="cls-114" points="251 333.75 282.68 308.32 264.32 312.45 251 333.75"/><polygon class="cls-115" points="195.25 373.97 215.8 368.16 207.82 362.18 195.25 373.97"/><polygon class="cls-116" points="272.31 303.82 282.68 308.32 291.64 295.28 272.31 303.82"/><polygon class="cls-117" points="641.37 171.22 668.1 203.18 672.81 170.03 641.37 171.22"/><polygon class="cls-118" points="668.1 203.18 715.08 163.58 672.81 170.03 668.1 203.18"/><polygon class="cls-1" points="700.43 44.34 650.69 42.36 644.15 73.8 700.43 44.34"/><polygon class="cls-119" points="737.96 100.76 667.62 131.66 715.08 163.58 737.96 100.76"/><polygon class="cls-120" points="672.81 170.03 667.62 131.66 641.37 171.22 672.81 170.03"/><polygon class="cls-121" points="715.08 163.58 667.62 131.66 672.81 170.03 715.08 163.58"/><polygon class="cls-122" points="291.64 295.28 306.79 291.68 274.68 290.25 291.64 295.28"/><polygon class="cls-123" points="203.26 349.29 200.75 339.89 195.2 350.06 203.26 349.29"/><polygon class="cls-124" points="282.68 308.32 306.79 291.68 291.64 295.28 282.68 308.32"/><polygon class="cls-125" points="264.32 312.45 282.68 308.32 272.31 303.82 264.32 312.45"/><polygon class="cls-126" points="729.94 9.45 650.69 42.36 700.43 44.34 729.94 9.45"/><polygon class="cls-127" points="274.68 290.25 306.79 291.68 253.63 281.78 274.68 290.25"/><polygon class="cls-128" points="195.2 350.06 179.35 356.43 190.58 359.08 195.2 350.06"/><polygon class="cls-129" points="211.94 336.38 234.77 335.96 229.58 323.05 211.94 336.38"/><polygon class="cls-130" points="203.26 349.29 220.26 348.88 211.94 336.38 203.26 349.29"/><polygon class="cls-131" points="234.77 335.96 243.3 322.19 229.58 323.05 234.77 335.96"/><polygon class="cls-132" points="220.26 348.88 234.77 335.96 211.94 336.38 220.26 348.88"/><polygon class="cls-133" points="211.94 336.38 200.75 339.89 203.26 349.29 211.94 336.38"/><polygon class="cls-134" points="229.58 323.05 243.3 322.19 234.46 308.38 229.58 323.05"/><polygon class="cls-135" points="190.58 359.08 207.82 362.18 203.26 349.29 190.58 359.08"/><polygon class="cls-136" points="253.63 281.78 234.76 298.11 254.49 288.1 253.63 281.78"/><polygon class="cls-137" points="254.49 288.1 234.76 298.11 274.68 290.25 254.49 288.1"/><polygon class="cls-138" points="207.82 362.18 220.26 348.88 203.26 349.29 207.82 362.18"/><polygon class="cls-139" points="274.68 290.25 253.63 281.78 254.49 288.1 274.68 290.25"/><polygon class="cls-140" points="243.3 322.19 264.32 312.45 253.05 302.59 243.3 322.19"/><polygon class="cls-141" points="195.2 350.06 190.58 359.08 203.26 349.29 195.2 350.06"/><polygon class="cls-142" points="234.46 308.38 243.3 322.19 253.05 302.59 234.46 308.38"/><polygon class="cls-143" points="253.05 302.59 234.76 298.11 234.46 308.38 253.05 302.59"/><polygon class="cls-144" points="234.46 308.38 225.14 310.89 229.58 323.05 234.46 308.38"/><polygon class="cls-145" points="234.76 298.11 225.14 310.89 234.46 308.38 234.76 298.11"/><polygon class="cls-146" points="264.32 312.45 272.31 303.82 253.05 302.59 264.32 312.45"/><polygon class="cls-147" points="229.58 323.05 213.04 322.06 211.94 336.38 229.58 323.05"/><polygon class="cls-148" points="213.04 322.06 200.75 339.89 211.94 336.38 213.04 322.06"/><polygon class="cls-149" points="225.14 310.89 213.04 322.06 229.58 323.05 225.14 310.89"/><polygon class="cls-150" points="272.31 303.82 291.64 295.28 263.9 295.7 272.31 303.82"/><polygon class="cls-151" points="253.05 302.59 272.31 303.82 263.9 295.7 253.05 302.59"/><polygon class="cls-152" points="263.9 295.7 234.76 298.11 253.05 302.59 263.9 295.7"/><polygon class="cls-153" points="274.68 290.25 234.76 298.11 263.9 295.7 274.68 290.25"/><polygon class="cls-154" points="291.64 295.28 274.68 290.25 263.9 295.7 291.64 295.28"/><polygon class="cls-155" points="46.18 343.39 52.13 353.35 62.09 330.55 46.18 343.39"/><polygon class="cls-156" points="21.07 268.87 32.33 276.64 27.59 263.89 21.07 268.87"/><polygon class="cls-53" points="108.29 285.16 108.48 285.25 108.91 285.05 108.29 285.16"/><polygon class="cls-157" points="69.09 303.73 61.41 314.06 85.3 295.95 69.09 303.73"/><polygon class="cls-54" points="27.59 263.89 32.33 276.64 43.74 262.88 27.59 263.89"/><polygon class="cls-158" points="207.62 216.25 198.57 235.68 226.85 227.44 207.62 216.25"/><polygon class="cls-159" points="617.12 83.35 581.01 124.66 621.96 104.8 617.12 83.35"/><polygon class="cls-160" points="32.33 276.64 51.04 276.49 43.74 262.88 32.33 276.64"/><polygon class="cls-161" points="40.32 354.28 52.13 353.35 46.18 343.39 40.32 354.28"/><polygon class="cls-162" points="355.35 225.71 325.56 239.69 353.63 239.06 355.35 225.71"/><polygon class="cls-163" points="62.09 330.55 95.84 315.46 61.41 314.06 62.09 330.55"/><polygon class="cls-164" points="26.02 345.5 40.32 354.28 46.18 343.39 26.02 345.5"/><polygon class="cls-165" points="79.08 338.51 95.84 315.46 62.09 330.55 79.08 338.51"/><polygon class="cls-166" points="52.13 353.35 79.08 338.51 62.09 330.55 52.13 353.35"/><polygon class="cls-167" points="355.35 225.71 364.15 207.28 323.59 223.65 355.35 225.71"/><polygon class="cls-168" points="364.15 207.28 314.32 212.66 323.59 223.65 364.15 207.28"/><polygon class="cls-169" points="416.1 208.28 364.15 207.28 355.35 225.71 416.1 208.28"/><polygon class="cls-170" points="314.32 212.66 294.24 226.21 323.59 223.65 314.32 212.66"/><polygon class="cls-53" points="305.76 240.93 325.56 239.69 323.59 223.65 305.76 240.93"/><polygon class="cls-171" points="294.24 226.21 305.76 240.93 323.59 223.65 294.24 226.21"/><polygon class="cls-172" points="235.61 239.04 281.46 244.31 294.24 226.21 235.61 239.04"/><polygon class="cls-173" points="253.2 252.13 281.46 244.31 235.61 239.04 253.2 252.13"/><polygon class="cls-174" points="445.58 337.35 490.2 304.64 460.12 258.83 445.58 337.35"/><polygon class="cls-175" points="353.63 239.06 416.1 208.28 355.35 225.71 353.63 239.06"/><polygon class="cls-176" points="281.46 244.31 305.76 240.93 294.24 226.21 281.46 244.31"/><polygon class="cls-177" points="621.96 104.8 581.01 124.66 609.69 179.06 621.96 104.8"/><polygon class="cls-178" points="313.84 459.12 330.92 456.31 345.99 414.18 313.84 459.12"/><polygon class="cls-179" points="431.76 397.86 473.28 372.5 416.92 383.24 431.76 397.86"/><polygon class="cls-53" points="416.83 355.8 400.4 373.17 416.92 383.24 416.83 355.8"/><polygon class="cls-180" points="381.95 422.34 431.76 397.86 345.99 414.18 381.95 422.34"/><polygon class="cls-181" points="382.14 390.61 431.76 397.86 416.92 383.24 382.14 390.61"/><polygon class="cls-182" points="400.4 373.17 382.14 390.61 416.92 383.24 400.4 373.17"/><polygon class="cls-183" points="396.75 437.84 431.76 397.86 381.95 422.34 396.75 437.84"/><polygon class="cls-184" points="345.99 414.18 431.76 397.86 382.14 390.61 345.99 414.18"/><polygon class="cls-185" points="363.83 447.76 396.75 437.84 381.95 422.34 363.83 447.76"/><polygon class="cls-186" points="329.51 479.67 330.92 456.31 306.78 475.42 329.51 479.67"/><polygon class="cls-187" points="306.78 475.42 330.92 456.31 313.84 459.12 306.78 475.42"/><polygon class="cls-53" points="330.92 456.31 363.83 447.76 381.95 422.34 330.92 456.31"/><polygon class="cls-188" points="345.99 414.18 330.92 456.31 381.95 422.34 345.99 414.18"/><polygon class="cls-189" points="125.58 344.23 139.91 351.57 140.77 335.33 125.58 344.23"/><polygon class="cls-190" points="139.91 351.57 155.24 347.1 140.77 335.33 139.91 351.57"/><polygon class="cls-191" points="19.49 336.51 26.02 345.5 39.87 334.04 19.49 336.51"/><polygon class="cls-192" points="416.92 383.24 473.28 372.5 416.83 355.8 416.92 383.24"/><polygon class="cls-193" points="10.2 350.18 20.78 357.06 26.02 345.5 10.2 350.18"/><polygon class="cls-194" points="20.78 357.06 40.32 354.28 26.02 345.5 20.78 357.06"/><polygon class="cls-195" points="117.97 362.26 129.47 367.66 125.58 344.23 117.97 362.26"/><polygon class="cls-196" points="129.47 367.66 139.91 351.57 125.58 344.23 129.47 367.66"/><polygon class="cls-197" points="108.35 386.78 127.16 382.5 106.13 377.52 108.35 386.78"/><polygon class="cls-198" points="127.16 382.5 129.47 367.66 106.13 377.52 127.16 382.5"/><polygon class="cls-199" points="109.52 363.21 106.13 377.52 117.97 362.26 109.52 363.21"/><polygon class="cls-200" points="106.13 377.52 129.47 367.66 117.97 362.26 106.13 377.52"/><polygon class="cls-201" points="323.59 223.65 325.56 239.69 355.35 225.71 323.59 223.65"/><polygon class="cls-202" points="127.16 382.5 150.73 365.41 129.47 367.66 127.16 382.5"/><polygon class="cls-203" points="150.73 365.41 169.78 341.76 155.24 347.1 150.73 365.41"/><polygon class="cls-204" points="177.84 324.82 195.56 318.5 195.44 306.12 177.84 324.82"/><polygon class="cls-205" points="169.78 341.76 195.56 318.5 177.84 324.82 169.78 341.76"/><polygon class="cls-206" points="108.35 386.78 131.4 388.94 127.16 382.5 108.35 386.78"/><polygon class="cls-207" points="127.16 382.5 131.4 388.94 145.04 379.46 127.16 382.5"/><polygon class="cls-208" points="139.91 351.57 150.73 365.41 155.24 347.1 139.91 351.57"/><polygon class="cls-209" points="106.13 377.52 96.99 386.04 108.35 386.78 106.13 377.52"/><polygon class="cls-210" points="91.87 376.5 96.99 386.04 106.13 377.52 91.87 376.5"/><polygon class="cls-104" points="108.35 386.78 111.53 395.25 131.4 388.94 108.35 386.78"/><polygon class="cls-211" points="96.99 386.04 111.53 395.25 108.35 386.78 96.99 386.04"/><polygon class="cls-212" points="129.47 367.66 150.73 365.41 139.91 351.57 129.47 367.66"/><polygon class="cls-213" points="145.04 379.46 150.73 365.41 127.16 382.5 145.04 379.46"/><polygon class="cls-214" points="123.34 334.85 113.42 350.87 125.58 344.23 123.34 334.85"/><polygon class="cls-215" points="125.58 344.23 113.42 350.87 117.97 362.26 125.58 344.23"/><polygon class="cls-216" points="140.77 335.33 123.34 334.85 125.58 344.23 140.77 335.33"/><polygon class="cls-217" points="109.52 363.21 91.87 376.5 106.13 377.52 109.52 363.21"/><polygon class="cls-218" points="117.97 362.26 113.42 350.87 109.52 363.21 117.97 362.26"/><polygon class="cls-219" points="140.6 321.2 123.34 334.85 140.77 335.33 140.6 321.2"/><polygon class="cls-220" points="113.42 350.87 91.87 376.5 109.52 363.21 113.42 350.87"/><polygon class="cls-221" points="195.56 318.5 213.59 298.85 195.44 306.12 195.56 318.5"/><polygon class="cls-222" points="253.63 281.78 306.79 291.68 291.84 279.77 253.63 281.78"/><polygon class="cls-223" points="276.42 261 253.63 281.78 303.21 265.02 276.42 261"/><polygon class="cls-224" points="303.21 265.02 253.63 281.78 291.84 279.77 303.21 265.02"/><polygon class="cls-225" points="303.21 265.02 306.79 291.68 337.95 291.69 303.21 265.02"/><polygon class="cls-226" points="291.84 279.77 306.79 291.68 303.21 265.02 291.84 279.77"/><polygon class="cls-227" points="254.04 265.55 253.63 281.78 276.42 261 254.04 265.55"/><polygon class="cls-228" points="204.56 297.48 213.59 298.85 233.65 284.87 204.56 297.48"/><polygon class="cls-229" points="227.05 281.31 227.15 281.36 253.63 281.78 254.04 265.55 227.05 281.31"/><polygon class="cls-230" points="195.44 306.12 213.59 298.85 204.56 297.48 195.44 306.12"/><polygon class="cls-231" points="213.59 298.85 253.63 281.78 233.65 284.87 213.59 298.85"/><polygon class="cls-232" points="233.65 284.87 253.63 281.78 227.15 281.36 233.65 284.87"/><polygon class="cls-233" points="0 339.29 0.42 348.3 10.2 350.18 0 339.29"/><polygon class="cls-234" points="139.29 313.57 139.08 313.67 123.34 334.85 140.6 321.2 139.29 313.57"/><polygon class="cls-235" points="23.71 368.19 50.85 366.48 20.78 357.06 23.71 368.19"/><polygon class="cls-236" points="26.02 345.5 0 339.29 10.2 350.18 26.02 345.5"/><polygon class="cls-237" points="0.42 348.3 6.83 363.23 10.2 350.18 0.42 348.3"/><polygon class="cls-238" points="6.83 363.23 23.71 368.19 20.78 357.06 6.83 363.23"/><polygon class="cls-239" points="10.2 350.18 6.83 363.23 20.78 357.06 10.2 350.18"/><polygon class="cls-240" points="306.79 291.68 364 312.57 337.95 291.69 306.79 291.68"/><polygon class="cls-241" points="69.09 303.73 36.18 318.01 61.41 314.06 69.09 303.73"/><polygon class="cls-242" points="61.41 314.06 36.18 318.01 62.09 330.55 61.41 314.06"/><polygon class="cls-243" points="75.41 291.01 53.88 305.78 36.18 318.01 69.09 303.73 75.41 291.01"/><polygon class="cls-244" points="36.18 318.01 0 339.29 19.49 336.51 36.18 318.01"/><polygon class="cls-245" points="62.09 330.55 36.18 318.01 39.87 334.04 62.09 330.55"/><polygon class="cls-246" points="39.87 334.04 36.18 318.01 19.49 336.51 39.87 334.04"/><polygon class="cls-247" points="19.49 336.51 0 339.29 26.02 345.5 19.49 336.51"/><polygon class="cls-248" points="95.84 315.46 95.78 336.28 104.57 324.2 95.84 315.46"/><polygon class="cls-249" points="121.22 307.86 128.36 318.89 141.51 300.84 121.22 307.86"/><polygon class="cls-250" points="95.84 315.46 104.57 324.2 128.36 318.89 95.84 315.46"/><polygon class="cls-251" points="128.36 318.89 104.57 324.2 95.78 336.28 128.36 318.89"/><polygon class="cls-252" points="95.84 315.46 128.36 318.89 121.22 307.86 95.84 315.46"/><polygon class="cls-253" points="20.78 357.06 50.85 366.48 40.32 354.28 20.78 357.06"/><polygon class="cls-53" points="139.27 313.42 139.08 313.67 139.29 313.57 139.27 313.42"/><polygon class="cls-254" points="141.51 300.84 128.36 318.89 139.08 313.67 139.27 313.42 141.51 300.84"/><polygon class="cls-255" points="79.08 338.51 95.78 336.28 95.84 315.46 79.08 338.51"/><polygon class="cls-256" points="50.85 366.48 75.16 352.36 52.13 353.35 50.85 366.48"/><polygon class="cls-257" points="40.32 354.28 50.85 366.48 52.13 353.35 40.32 354.28"/><polygon class="cls-258" points="75.16 352.36 95.78 336.28 79.08 338.51 75.16 352.36"/><polygon class="cls-259" points="52.13 353.35 75.16 352.36 79.08 338.51 52.13 353.35"/><polygon class="cls-260" points="384.56 377.95 362.96 390.4 382.14 390.61 384.56 377.95"/><polygon class="cls-261" points="499.7 381.81 517.26 359.25 473.28 372.5 499.7 381.81"/><polygon class="cls-262" points="448.26 403.88 478.49 387.11 473.28 372.5 448.26 403.88"/><polygon class="cls-263" points="473.28 372.5 517.26 359.25 514.84 320.7 473.28 372.5"/><polygon class="cls-264" points="478.49 387.11 499.7 381.81 473.28 372.5 478.49 387.11"/><polygon class="cls-265" points="514.84 320.7 517.26 359.25 538.11 330.19 514.84 320.7"/><polygon class="cls-266" points="562.64 331.85 604.7 295.3 538.11 330.19 562.64 331.85"/><polygon class="cls-267" points="517.26 359.25 562.64 331.85 538.11 330.19 517.26 359.25"/><polygon class="cls-268" points="380.45 455.6 399.69 449.02 396.75 437.84 380.45 455.6"/><polygon class="cls-269" points="431.76 397.86 448.26 403.88 473.28 372.5 431.76 397.86"/><polygon class="cls-205" points="399.69 449.02 417.33 429.15 396.75 437.84 399.69 449.02"/><polygon class="cls-270" points="367.28 466.32 380.45 455.6 363.83 447.76 367.28 466.32"/><polygon class="cls-271" points="396.75 437.84 417.33 429.15 431.76 397.86 396.75 437.84"/><polygon class="cls-272" points="417.33 429.15 448.26 403.88 431.76 397.86 417.33 429.15"/><polygon class="cls-273" points="363.83 447.76 380.45 455.6 396.75 437.84 363.83 447.76"/><polygon class="cls-274" points="655.02 233.21 686.12 205.25 668.1 203.18 655.02 233.21"/><polygon class="cls-275" points="705.56 196.11 729.37 174.6 715.08 163.58 705.56 196.11"/><polygon class="cls-53" points="686.12 205.25 705.56 196.11 668.1 203.18 686.12 205.25"/><polygon class="cls-276" points="668.1 203.18 705.56 196.11 715.08 163.58 668.1 203.18"/><polygon class="cls-277" points="538.11 330.19 604.7 295.3 612.77 257.36 538.11 330.19"/><polygon class="cls-278" points="337.95 291.69 364 312.57 393.28 306.44 337.95 291.69"/><polygon class="cls-279" points="729.37 174.6 774.69 141.9 715.08 163.58 729.37 174.6"/><polygon class="cls-280" points="640.36 257.14 655.02 233.21 612.77 257.36 640.36 257.14"/><polygon class="cls-281" points="604.7 295.3 640.36 257.14 612.77 257.36 604.7 295.3"/><polygon class="cls-282" points="606.56 217.43 655.02 233.21 641.37 171.22 606.56 217.43"/><polygon class="cls-283" points="641.37 171.22 655.02 233.21 668.1 203.18 641.37 171.22"/><polygon class="cls-284" points="612.77 257.36 655.02 233.21 606.56 217.43 612.77 257.36"/><polygon class="cls-285" points="85.3 295.95 75.41 291.01 69.09 303.73 85.3 295.95"/><polygon class="cls-53" points="400.4 373.17 384.56 377.95 382.14 390.61 400.4 373.17"/><polygon class="cls-286" points="401.56 356.76 384.56 377.95 400.4 373.17 401.56 356.76"/><polygon class="cls-53" points="362.96 390.4 352.19 399.02 330.46 414.9 382.14 390.61 362.96 390.4"/><polygon class="cls-287" points="382.14 390.61 330.46 414.9 345.99 414.18 382.14 390.61"/><polygon class="cls-288" points="416.83 355.8 401.56 356.76 400.4 373.17 416.83 355.8"/><polygon class="cls-289" points="411.38 334.51 401.56 356.76 437.62 320.64 411.38 334.51"/><polygon class="cls-290" points="393.28 306.44 411.38 334.51 414.55 317.86 393.28 306.44"/><polygon class="cls-291" points="364 312.57 411.38 334.51 393.28 306.44 364 312.57"/><polygon class="cls-292" points="345.99 414.18 330.46 414.9 313.84 459.12 345.99 414.18"/><polygon class="cls-293" points="437.62 320.64 401.56 356.76 416.83 355.8 437.62 320.64"/><polygon class="cls-294" points="414.55 317.86 411.38 334.51 437.62 320.64 414.55 317.86"/><polygon class="cls-53" points="298.79 468.64 298.18 489.49 306.78 475.42 298.79 468.64"/><polygon class="cls-295" points="317.42 508 337.78 492.2 329.51 479.67 317.42 508"/><polygon class="cls-296" points="337.78 492.2 352.72 472.92 329.51 479.67 337.78 492.2"/><polygon class="cls-297" points="317.64 491.19 317.42 508 329.51 479.67 317.64 491.19"/><polygon class="cls-298" points="305.44 504.89 317.42 508 317.64 491.19 305.44 504.89"/><polygon class="cls-299" points="329.51 479.67 352.72 472.92 330.92 456.31 329.51 479.67"/><polygon class="cls-300" points="330.92 456.31 352.72 472.92 363.83 447.76 330.92 456.31"/><polygon class="cls-301" points="352.72 472.92 367.28 466.32 363.83 447.76 352.72 472.92"/><polygon class="cls-302" points="313.84 459.12 298.79 468.64 306.78 475.42 313.84 459.12"/><polygon class="cls-303" points="311.03 441.31 298.79 468.64 313.84 459.12 311.03 441.31"/><polygon class="cls-304" points="298.18 489.49 305.44 504.89 306.78 475.42 298.18 489.49"/><polygon class="cls-305" points="330.46 414.9 311.03 441.31 313.84 459.12 330.46 414.9"/><polygon class="cls-306" points="306.78 475.42 305.44 504.89 317.64 491.19 306.78 475.42"/><polygon class="cls-307" points="254.04 265.55 276.42 261 253.2 252.13 254.04 265.55"/><polygon class="cls-308" points="416.83 355.8 473.28 372.5 445.58 337.35 416.83 355.8"/><polygon class="cls-309" points="460.12 258.83 437.62 320.64 445.58 337.35 460.12 258.83"/><polygon class="cls-310" points="473.28 372.5 514.84 320.7 445.58 337.35 473.28 372.5"/><polygon class="cls-311" points="617.77 63.32 590.73 92.14 617.12 83.35 617.77 63.32"/><polygon class="cls-312" points="445.58 337.35 514.84 320.7 490.2 304.64 445.58 337.35"/><polygon class="cls-313" points="490.2 304.64 514.84 320.7 553.82 268.55 490.2 304.64"/><polygon class="cls-314" points="368.32 272.31 393.28 306.44 400.74 279.96 368.32 272.31"/><polygon class="cls-315" points="514.84 320.7 538.11 330.19 553.82 268.55 514.84 320.7"/><polygon class="cls-316" points="337.95 291.69 393.28 306.44 368.32 272.31 337.95 291.69"/><polygon class="cls-317" points="331.83 265.78 337.95 291.69 368.32 272.31 331.83 265.78"/><polygon class="cls-318" points="414.55 317.86 437.62 320.64 460.12 258.83 414.55 317.86"/><polygon class="cls-319" points="400.74 279.96 414.55 317.86 460.12 258.83 400.74 279.96"/><polygon class="cls-320" points="393.28 306.44 414.55 317.86 400.74 279.96 393.28 306.44"/><polygon class="cls-321" points="606.56 217.43 641.37 171.22 609.69 179.06 606.56 217.43"/><polygon class="cls-322" points="688.41 80.51 644.15 73.8 621.96 104.8 688.41 80.51"/><polygon class="cls-323" points="108.48 285.25 108.29 285.16 75.41 291.01 85.3 295.95 108.48 285.25"/><polygon class="cls-1" points="621.96 104.8 644.15 73.8 617.12 83.35 621.96 104.8"/><polygon class="cls-324" points="667.62 131.66 688.41 80.51 621.96 104.8 667.62 131.66"/><polygon class="cls-325" points="644.15 73.8 650.69 42.36 617.12 83.35 644.15 73.8"/><polygon class="cls-326" points="650.69 42.36 617.77 63.32 617.12 83.35 650.69 42.36"/><polygon class="cls-327" points="612.77 257.36 606.56 217.43 553.82 268.55 612.77 257.36"/><polygon class="cls-328" points="609.69 179.06 641.37 171.22 621.96 104.8 609.69 179.06"/><polygon class="cls-329" points="538.11 330.19 612.77 257.36 553.82 268.55 538.11 330.19"/><polygon class="cls-282" points="553.82 268.55 606.56 217.43 557.63 223.09 553.82 268.55"/><polygon class="cls-330" points="303.21 265.02 337.95 291.69 331.83 265.78 303.21 265.02"/><polygon class="cls-331" points="557.63 223.09 606.56 217.43 609.69 179.06 557.63 223.09"/><polygon class="cls-332" points="437.62 320.64 416.83 355.8 445.58 337.35 437.62 320.64"/><polygon class="cls-333" points="187.6 296.51 204.56 297.48 216.66 288.1 187.6 296.51"/><polygon class="cls-334" points="168.1 316.34 195.44 306.12 178.61 307.58 168.1 316.34"/><polygon class="cls-230" points="195.44 306.12 204.56 297.48 178.61 307.58 195.44 306.12"/><polygon class="cls-53" points="227.15 281.36 227.05 281.31 226.97 281.36 227.15 281.36"/><polygon class="cls-335" points="204.56 297.48 233.65 284.87 216.66 288.1 204.56 297.48"/><polygon class="cls-336" points="216.66 288.1 233.65 284.87 227.15 281.36 226.97 281.36 216.66 288.1"/><polygon class="cls-337" points="178.61 307.58 204.56 297.48 187.6 296.51 178.61 307.58"/><polygon class="cls-338" points="168.1 316.34 140.6 321.2 160.7 329.74 168.1 316.34"/><polygon class="cls-339" points="140.6 321.2 140.77 335.33 160.7 329.74 140.6 321.2"/><polygon class="cls-340" points="177.84 324.82 168.1 316.34 160.7 329.74 177.84 324.82"/><polygon class="cls-341" points="169.78 341.76 177.84 324.82 160.7 329.74 169.78 341.76"/><polygon class="cls-342" points="168.1 316.34 177.84 324.82 195.44 306.12 168.1 316.34"/><polygon class="cls-343" points="140.77 335.33 155.24 347.1 160.7 329.74 140.77 335.33"/><polygon class="cls-344" points="155.24 347.1 169.78 341.76 160.7 329.74 155.24 347.1"/><polygon class="cls-345" points="281.46 244.31 303.21 265.02 305.76 240.93 281.46 244.31"/><polygon class="cls-346" points="253.2 252.13 276.42 261 281.46 244.31 253.2 252.13"/><polygon class="cls-53" points="226.97 281.36 227.05 281.31 226.9 281.36 226.97 281.36"/><polygon class="cls-347" points="161.26 312.17 140.6 321.2 168.1 316.34 161.26 312.17"/><polygon class="cls-348" points="227.05 281.31 254.04 265.55 253.2 252.13 227.05 281.31"/><polygon class="cls-349" points="325.56 239.69 303.21 265.02 331.83 265.78 325.56 239.69"/><polygon class="cls-350" points="305.76 240.93 303.21 265.02 325.56 239.69 305.76 240.93"/><polygon class="cls-351" points="276.42 261 303.21 265.02 281.46 244.31 276.42 261"/><polygon class="cls-53" points="226.9 281.36 227.05 281.31 226.39 281.35 226.9 281.36"/><polygon class="cls-71" points="235.61 239.04 227.05 281.31 253.2 252.13 235.61 239.04"/><polygon class="cls-352" points="202.41 280.25 216.35 281.19 226.39 281.35 227.05 281.31 205.02 268.92 202.41 280.25"/><polygon class="cls-353" points="213.1 252.61 227.05 281.31 235.61 239.04 213.1 252.61"/><polygon class="cls-354" points="205.02 268.92 227.05 281.31 213.1 252.61 205.02 268.92"/><polygon class="cls-355" points="641.37 171.22 667.62 131.66 621.96 104.8 641.37 171.22"/><polygon class="cls-356" points="96.73 238.26 69.39 241.68 84.36 249.55 96.73 238.26"/><polygon class="cls-357" points="92.63 259.66 96.73 238.26 84.36 249.55 92.63 259.66"/><polygon class="cls-358" points="115.95 260.62 96.73 238.26 92.63 259.66 115.95 260.62"/><polygon class="cls-359" points="84.36 249.55 69.39 241.68 61.89 254.53 84.36 249.55"/><polygon class="cls-360" points="54.56 246.86 37.21 249.6 43.74 262.88 54.56 246.86"/><polygon class="cls-361" points="69.39 241.68 54.56 246.86 61.89 254.53 69.39 241.68"/><polygon class="cls-362" points="61.89 254.53 54.56 246.86 43.74 262.88 61.89 254.53"/><polygon class="cls-363" points="138.63 254.96 127.98 228.65 115.95 260.62 138.63 254.96"/><polygon class="cls-364" points="155.97 240.49 127.98 228.65 138.63 254.96 155.97 240.49"/><polygon class="cls-365" points="155.75 219.51 127.98 228.65 155.97 240.49 155.75 219.51"/><polygon class="cls-366" points="115.64 239.83 96.73 238.26 115.95 260.62 115.64 239.83"/><polygon class="cls-246" points="127.98 228.65 96.73 238.26 115.64 239.83 127.98 228.65"/><polygon class="cls-367" points="115.95 260.62 127.98 228.65 115.64 239.83 115.95 260.62"/><polygon class="cls-368" points="21.07 268.87 25.34 282.93 32.33 276.64 21.07 268.87"/><polygon class="cls-53" points="32.33 276.64 43.34 289.19 51.04 276.49 32.33 276.64"/><polygon class="cls-369" points="43.74 262.88 37.21 249.6 27.59 263.89 43.74 262.88"/><polygon class="cls-370" points="51.04 276.49 43.34 289.19 69.47 285.2 51.04 276.49"/><polygon class="cls-371" points="43.34 289.19 75.41 291.01 69.47 285.2 43.34 289.19"/><polygon class="cls-372" points="168.24 230.66 155.75 219.51 155.97 240.49 168.24 230.66"/><polygon class="cls-69" points="108.22 285.13 108.29 285.16 108.91 285.05 69.47 285.2 75.41 291.01 108.29 285.16 108.22 285.13"/><polygon class="cls-373" points="25.34 282.93 43.34 289.19 32.33 276.64 25.34 282.93"/><polygon class="cls-374" points="18.64 254.87 14.91 258.99 27.59 263.89 18.64 254.87"/><polygon class="cls-375" points="37.21 249.6 18.64 254.87 27.59 263.89 37.21 249.6"/><polygon class="cls-376" points="27.59 263.89 14.91 258.99 21.07 268.87 27.59 263.89"/><polygon class="cls-377" points="14.36 273.76 25.34 282.93 21.07 268.87 14.36 273.76"/><polygon class="cls-378" points="14.91 258.99 14.36 273.76 21.07 268.87 14.91 258.99"/><polygon class="cls-379" points="207.62 216.25 196.02 207.3 198.57 235.68 207.62 216.25"/><polygon class="cls-380" points="316.85 192.14 288.9 193.8 292.88 201.89 316.85 192.14"/><polygon class="cls-381" points="356.3 168.2 331.46 173.87 350.18 175.43 356.3 168.2"/><polygon class="cls-382" points="413.91 159.53 356.3 168.2 366.02 180.44 413.91 159.53"/><polygon class="cls-383" points="366.02 180.44 356.3 168.2 350.18 175.43 366.02 180.44"/><polygon class="cls-384" points="331.46 173.87 288.9 193.8 316.85 192.14 331.46 173.87"/><polygon class="cls-385" points="350.18 175.43 331.46 173.87 316.85 192.14 350.18 175.43"/><polygon class="cls-386" points="391.91 200.78 413.91 159.53 366.02 180.44 391.91 200.78"/><polygon class="cls-387" points="590.73 92.14 540.72 119.97 581.01 124.66 590.73 92.14"/><polygon class="cls-388" points="581.01 124.66 540.72 119.97 492.8 173.85 581.01 124.66"/><polygon class="cls-389" points="540.72 119.97 495.18 134.28 413.91 159.53 474.84 157.66 540.72 119.97"/><polygon class="cls-390" points="474.84 157.66 413.91 159.53 391.91 200.78 474.84 157.66"/><polygon class="cls-391" points="492.8 173.85 540.72 119.97 474.84 157.66 492.8 173.85"/><polygon class="cls-392" points="292.88 201.89 288.9 193.8 266.78 202.85 292.88 201.89"/><polygon class="cls-393" points="214.94 206.45 196.02 207.3 207.62 216.25 214.94 206.45"/><polygon class="cls-394" points="617.12 83.35 590.73 92.14 581.01 124.66 617.12 83.35"/><polygon class="cls-395" points="238.56 208.74 214.94 206.45 226.85 227.44 238.56 208.74"/><polygon class="cls-396" points="226.85 227.44 214.94 206.45 207.62 216.25 226.85 227.44"/><polygon class="cls-397" points="196.02 207.3 178.46 214.16 198.57 235.68 196.02 207.3"/><polygon class="cls-398" points="198.57 235.68 178.46 214.16 168.24 230.66 198.57 235.68"/><polygon class="cls-399" points="288.9 193.8 238.56 208.74 266.78 202.85 288.9 193.8"/><polygon class="cls-400" points="266.78 202.85 238.56 208.74 269.6 207.61 266.78 202.85"/><polygon class="cls-401" points="178.46 214.16 155.75 219.51 168.24 230.66 178.46 214.16"/><polygon class="cls-402" points="263.53 210.47 238.56 208.74 255.81 222.12 263.53 210.47"/><polygon class="cls-403" points="269.6 207.61 238.56 208.74 263.53 210.47 269.6 207.61"/><polygon class="cls-404" points="255.81 222.12 238.56 208.74 226.85 227.44 255.81 222.12"/><polygon class="cls-405" points="26.02 345.5 46.18 343.39 39.87 334.04 26.02 345.5"/><polygon class="cls-406" points="39.87 334.04 46.18 343.39 62.09 330.55 39.87 334.04"/><polygon class="cls-407" points="168.1 316.34 178.61 307.58 169.22 303.87 168.1 316.34"/><polygon class="cls-81" points="169.22 303.87 178.61 307.58 187.6 296.51 169.22 303.87"/><polygon class="cls-1" points="688.41 80.51 700.43 44.34 737.76 39.44 688.41 80.51"/><polygon class="cls-1" points="792.73 89.66 753.27 106.61 743.62 132.65 792.73 89.66"/><polygon class="cls-117" points="771.6 125.12 805.6 91.02 805.05 123.02 771.6 125.12"/><polygon class="cls-120" points="748.5 88.78 808.12 32.46 795.11 69.42 748.5 88.78"/><polygon class="cls-324" points="757.58 47.32 748.5 88.78 711.33 103.99 757.58 47.32"/><polygon class="cls-1" points="758.25 0 746.55 18.53 781.1 6.23 758.25 0"/></g></g></svg>