<svg xmlns="http://www.w3.org/2000/svg" viewBox="0 0 906.64 494.97"><defs><style>.cls-1{fill:#dedede;}.cls-2{fill:#ededed;}.cls-3{fill:#e0e0e0;}.cls-4{fill:#d4d4d4;}.cls-5{fill:#e3e3e3;}.cls-6{fill:#e8e8e8;}.cls-7{fill:#dbdbdb;}.cls-8{fill:#bdbdbd;}.cls-9{fill:#d6d6d6;}.cls-10{fill:#b8b8b8;}.cls-11{fill:#9a9a9a;}.cls-12{fill:#b2b2b2;}.cls-13{fill:#c4c4c4;}.cls-14{fill:#c7c7c7;}.cls-15{fill:#d9d9d9;}.cls-16{fill:#e6e6e6;}.cls-17{fill:#888;}.cls-18{fill:#818181;}.cls-19{fill:#ababab;}.cls-20{fill:#8f8f8f;}.cls-21{fill:#afafaf;}.cls-22{fill:#7a7a7a;}.cls-23{fill:#737373;}.cls-24{fill:#5c5c5c;}.cls-25{fill:#858585;}.cls-26{fill:#9d9d9d;}.cls-27{fill:#666;}.cls-28{fill:#a1a1a1;}.cls-29{fill:silver;}.cls-30{fill:#969696;}.cls-31{fill:#f0f0f0;}.cls-32{fill:#777;}.cls-33{fill:#696969;}.cls-34{fill:#ebebeb;}.cls-35{fill:#474747;}</style></defs><title>Asset 1</title><g id="Layer_2" data-name="Layer 2"><g id="Layer_1-2" data-name="Layer 1"><polygon class="cls-1" points="122.03 369.87 195.32 346.84 169.08 395.41 212.33 406.91 153.17 430.05 120.03 461.51 202.41 437.45 237.41 420.2 267.44 394.51 320.18 372.3 367.01 363.05 450.56 346.82 508.77 344.49 534.08 341.57 578.56 326.41 630.23 317.05 653.46 321.9 672.36 323.12 690.56 318.22 713.72 315.38 742.32 309.33 774.43 303.18 801.99 302.77 817.29 299.24 834.84 298.41 853.87 295.2 858.03 291.51 860.19 276.89 850.28 266.58 833.07 258.39 801.39 253.08 824.4 240.75 843.33 230.52 881.62 213.32 882.18 204.32 877.43 188.78 861.2 182 834.04 180.74 808.34 192.12 786.08 205.86 751.79 219.58 740.57 223.6 758.52 204.27 770.13 189.43 794.36 166.3 790.31 156.26 776.86 145.51 756.42 149.62 741.83 157.56 734.64 170.9 713.12 192.33 684.95 212.63 664.88 230.2 623.22 242.8 643.77 228.63 654.73 216.97 667.97 207.19 682.13 190.81 705.21 176.7 705.6 167.09 691.32 157.53 670.26 161.06 653.1 177.31 631.51 191.43 597.24 213.25 571.47 227.16 516.87 200.15 472.17 173.16 484.37 152.12 503.58 132.91 526.4 122.89 538.05 115.5 561.39 102.09 583.58 77.95 598.74 52.12 601.61 31.47 596.07 15.36 584.51 10.97 562.54 24.45 545.59 41.99 530.4 46.95 516.14 56.18 496.29 60.62 476.59 78.44 443.08 100.18 411.2 113.55 389.54 116.51 369.62 137.01 321.52 159.3 275.73 191.04 236.11 225.08 218.94 247.26 184.97 271.67 164.64 278.62 138.63 297.41 90.01 324.97 151.63 309.92 122.03 369.87"/><polygon class="cls-1" points="115.53 430.85 153.17 430.05 169.08 395.41 115.53 430.85"/><polygon class="cls-1" points="66.37 374.93 107.45 362.38 119.88 337.55 66.37 374.93"/><polygon class="cls-1" points="57.77 340.42 53.73 372.17 91.25 341.99 57.77 340.42"/><polygon class="cls-1" points="44.83 430.1 110.25 380.63 61.8 394.78 44.83 430.1"/><polygon class="cls-1" points="148.85 369.57 110.25 380.63 96.7 420.85 148.85 369.57"/><polygon class="cls-1" points="90.86 467.81 104.52 450.67 68.83 459.13 90.86 467.81"/><polygon class="cls-2" points="514.09 318.06 500.45 331.26 522.1 328.56 514.09 318.06"/><polygon class="cls-1" points="601.53 319.82 599.25 314.79 555.35 304.88 601.53 319.82"/><polygon class="cls-1" points="575.49 317.93 601.53 319.82 555.35 304.88 575.49 317.93"/><polygon class="cls-3" points="605.6 312.6 614.54 301.86 555.35 304.88 605.6 312.6"/><polygon class="cls-3" points="614.54 301.86 643.91 299.74 636.47 287.25 614.54 301.86"/><polygon class="cls-4" points="576.79 293.61 614.54 301.86 636.47 287.25 576.79 293.61"/><polygon class="cls-5" points="555.35 304.88 614.54 301.86 576.79 293.61 555.35 304.88"/><polygon class="cls-3" points="751.41 258.23 745.43 253.34 724.21 254.13 751.41 258.23"/><polygon class="cls-6" points="522.1 328.56 550.6 325 514.09 318.06 522.1 328.56"/><polygon class="cls-6" points="500.45 331.26 515.64 337.97 522.1 328.56 500.45 331.26"/><polygon class="cls-1" points="505.23 304.79 575.49 317.93 555.35 304.88 505.23 304.79"/><polygon class="cls-7" points="550.6 325 575.49 317.93 505.23 304.79 550.6 325"/><polygon class="cls-6" points="514.09 318.06 550.6 325 505.23 304.79 514.09 318.06"/><polygon class="cls-8" points="599.25 314.79 605.6 312.6 555.35 304.88 599.25 314.79"/><polygon class="cls-9" points="775.09 240.09 748.14 241.38 756.59 248.29 775.09 240.09"/><polygon class="cls-1" points="636.47 287.25 643.91 299.74 660.33 276.22 636.47 287.25"/><polygon class="cls-7" points="748.14 241.38 720.75 240.95 756.59 248.29 748.14 241.38"/><polygon class="cls-10" points="735.26 264.21 751.41 258.23 724.21 254.13 735.26 264.21"/><polygon class="cls-4" points="756.59 248.29 720.75 240.95 745.43 253.34 756.59 248.29"/><polygon class="cls-11" points="709.54 230.06 690.47 235.37 703.68 236.82 709.54 230.06"/><polygon class="cls-3" points="643.91 299.74 672.92 294.63 660.33 276.22 643.91 299.74"/><polygon class="cls-5" points="672.92 294.63 702.52 302.93 660.33 276.22 672.92 294.63"/><polygon class="cls-4" points="703.68 236.82 739.37 224.03 709.54 230.06 703.68 236.82"/><polygon class="cls-12" points="718.36 222.67 712.01 217.78 709.54 230.06 718.36 222.67"/><polygon class="cls-13" points="739.37 224.03 739.98 223.81 718.36 222.67 709.54 230.06 739.37 224.03"/><polygon class="cls-2" points="515.64 337.97 550.6 325 522.1 328.56 515.64 337.97"/><polygon class="cls-9" points="433.11 285.15 415.47 243.07 393.8 287.95 433.11 285.15"/><polygon class="cls-14" points="476.79 228.55 415.47 243.07 433.11 285.15 476.79 228.55"/><polygon class="cls-3" points="330.15 315.46 393.8 287.95 367.33 240.32 330.15 315.46"/><polygon class="cls-7" points="508.19 239.69 476.79 228.55 433.11 285.15 508.19 239.69"/><polygon class="cls-12" points="415.47 243.07 390.56 194.25 367.33 240.32 415.47 243.07"/><polygon class="cls-13" points="393.8 287.95 415.47 243.07 367.33 240.32 393.8 287.95"/><polygon class="cls-14" points="453.7 298.13 508.19 239.69 433.11 285.15 453.7 298.13"/><polygon class="cls-7" points="543.74 250.17 508.19 239.69 519.16 274.35 543.74 250.17"/><polygon class="cls-1" points="519.16 274.35 508.19 239.69 453.7 298.13 519.16 274.35"/><polygon class="cls-7" points="393.8 287.95 440.02 310.7 433.11 285.15 393.8 287.95"/><polygon class="cls-15" points="476.93 308.22 500.45 331.26 514.09 318.06 476.93 308.22"/><polygon class="cls-1" points="440.02 310.7 453.7 298.13 433.11 285.15 440.02 310.7"/><polygon class="cls-13" points="390.56 194.25 323.39 223.18 367.33 240.32 390.56 194.25"/><polygon class="cls-3" points="389.79 342.04 476.93 308.22 440.02 310.7 389.79 342.04"/><polygon class="cls-7" points="373.7 323.97 389.79 342.04 440.02 310.7 373.7 323.97"/><polygon class="cls-12" points="323.39 223.18 314.63 267.96 367.33 240.32 323.39 223.18"/><polygon class="cls-1" points="505.23 304.79 476.93 308.22 514.09 318.06 505.23 304.79"/><polygon class="cls-15" points="393.8 287.95 373.7 323.97 440.02 310.7 393.8 287.95"/><polygon class="cls-16" points="453.7 298.13 476.93 308.22 505.23 304.79 453.7 298.13"/><polygon class="cls-16" points="440.02 310.7 476.93 308.22 453.7 298.13 440.02 310.7"/><polygon class="cls-14" points="367.33 240.32 314.63 267.96 330.15 315.46 367.33 240.32"/><polygon class="cls-9" points="314.63 267.96 258.08 306.04 330.15 315.46 314.63 267.96"/><polygon class="cls-15" points="330.15 315.46 373.7 323.97 393.8 287.95 330.15 315.46"/><polygon class="cls-9" points="280.65 363.25 373.7 323.97 330.15 315.46 280.65 363.25"/><polygon class="cls-14" points="258.08 306.04 280.65 363.25 330.15 315.46 258.08 306.04"/><polygon class="cls-7" points="780.85 282.36 787.97 293.31 808.93 276.6 780.85 282.36"/><polygon class="cls-16" points="829.8 284.5 824.03 270.17 808.93 276.6 829.8 284.5"/><polygon class="cls-1" points="806.65 259.5 767.43 255.34 783.85 266.19 806.65 259.5"/><polygon class="cls-13" points="745.43 253.34 720.75 240.95 724.21 254.13 745.43 253.34"/><polygon class="cls-7" points="808.93 276.6 806.65 259.5 783.85 266.19 808.93 276.6"/><polygon class="cls-5" points="751.41 258.23 767.43 255.34 745.43 253.34 751.41 258.23"/><polygon class="cls-17" points="783.85 266.19 767.43 255.34 751.41 258.23 783.85 266.19"/><polygon class="cls-3" points="787.97 293.31 810.85 290.82 808.93 276.6 787.97 293.31"/><polygon class="cls-13" points="783.85 266.19 780.85 282.36 808.93 276.6 783.85 266.19"/><polygon class="cls-13" points="751.41 258.23 780.85 282.36 783.85 266.19 751.41 258.23"/><polygon class="cls-6" points="810.85 290.82 829.8 284.5 808.93 276.6 810.85 290.82"/><polygon class="cls-1" points="757.77 278.86 780.85 282.36 751.41 258.23 757.77 278.86"/><polygon class="cls-9" points="547.13 276.79 543.74 250.17 519.16 274.35 547.13 276.79"/><polygon class="cls-9" points="745.43 253.34 767.43 255.34 767.88 255.19 756.59 248.29 745.43 253.34"/><polygon class="cls-18" points="736.75 236.09 740.35 223.83 720.75 240.95 736.75 236.09"/><polygon class="cls-3" points="767.88 255.19 792.09 247.08 756.59 248.29 767.88 255.19"/><polygon class="cls-11" points="703.68 236.82 720.75 240.95 740.35 223.83 739.37 224.03 703.68 236.82"/><polygon class="cls-19" points="748.14 241.38 736.75 236.09 720.75 240.95 748.14 241.38"/><polygon class="cls-7" points="739.37 224.03 740.35 223.83 739.98 223.81 739.37 224.03"/><polygon class="cls-7" points="740.35 223.83 740.35 223.68 739.98 223.81 740.35 223.83"/><polygon class="cls-11" points="757.68 231.33 736.75 236.09 748.14 241.38 757.68 231.33"/><polygon class="cls-4" points="734.61 282.01 757.77 278.86 751.41 258.23 734.61 282.01"/><polygon class="cls-6" points="792.09 247.08 817.81 231.69 775.09 240.09 792.09 247.08"/><polygon class="cls-6" points="756.59 248.29 792.09 247.08 775.09 240.09 756.59 248.29"/><polygon class="cls-9" points="817.81 231.69 783.75 226.54 775.09 240.09 817.81 231.69"/><polygon class="cls-7" points="783.75 226.54 757.68 231.33 775.09 240.09 783.75 226.54"/><polygon class="cls-3" points="775.09 240.09 757.68 231.33 748.14 241.38 775.09 240.09"/><polygon class="cls-4" points="824.03 270.17 806.65 259.5 808.93 276.6 824.03 270.17"/><polygon class="cls-20" points="660.66 240.55 649.68 246.13 649.74 246.14 674.4 240.62 660.66 240.55"/><polygon class="cls-17" points="720.75 240.95 703.68 236.82 690.17 246.12 720.75 240.95"/><polygon class="cls-12" points="707.34 248.86 720.75 240.95 690.17 246.12 707.34 248.86"/><polygon class="cls-21" points="690.47 235.37 660.66 240.55 674.4 240.62 690.47 235.37"/><polygon class="cls-20" points="703.68 236.82 690.47 235.37 674.4 240.62 703.68 236.82"/><polygon class="cls-14" points="724.21 254.13 720.75 240.95 707.34 248.86 724.21 254.13"/><polygon class="cls-17" points="690.17 246.12 703.68 236.82 674.4 240.62 690.17 246.12"/><polygon class="cls-19" points="705.43 267.28 724.21 254.13 691.85 251.82 705.43 267.28"/><polygon class="cls-20" points="674.4 240.62 677.31 247.46 690.17 246.12 674.4 240.62"/><polygon class="cls-6" points="691.85 251.82 724.21 254.13 707.34 248.86 691.85 251.82"/><polygon class="cls-9" points="739.98 223.81 740.35 223.68 739.88 215.95 718.36 222.67 739.98 223.81"/><polygon class="cls-17" points="677.31 247.46 691.85 251.82 690.17 246.12 677.31 247.46"/><polygon class="cls-13" points="690.17 246.12 691.85 251.82 707.34 248.86 690.17 246.12"/><polygon class="cls-7" points="715.79 294.5 734.61 282.01 735.26 264.21 715.79 294.5"/><polygon class="cls-5" points="702.52 302.93 715.79 294.5 705.43 267.28 702.52 302.93"/><polygon class="cls-22" points="674.4 240.62 649.74 246.14 650.26 246.2 677.31 247.46 674.4 240.62"/><polygon class="cls-13" points="705.43 267.28 715.79 294.5 724.21 254.13 705.43 267.28"/><polygon class="cls-13" points="724.21 254.13 715.79 294.5 735.26 264.21 724.21 254.13"/><polygon class="cls-7" points="735.26 264.21 734.61 282.01 751.41 258.23 735.26 264.21"/><polygon class="cls-15" points="660.33 276.22 702.52 302.93 682.88 275.99 660.33 276.22"/><polygon class="cls-9" points="682.88 275.99 702.52 302.93 705.43 267.28 682.88 275.99"/><polygon class="cls-9" points="670.14 260.89 660.33 276.22 682.88 275.99 670.14 260.89"/><polygon class="cls-23" points="677.31 247.46 673.97 249.91 691.85 251.82 677.31 247.46"/><polygon class="cls-24" points="650.26 246.2 660.21 247.46 673.97 249.91 677.31 247.46 650.26 246.2"/><polygon class="cls-11" points="673.97 249.91 670.14 260.89 682.88 275.99 673.97 249.91"/><polygon class="cls-19" points="691.85 251.82 673.97 249.91 682.88 275.99 691.85 251.82"/><polygon class="cls-13" points="682.88 275.99 705.43 267.28 691.85 251.82 682.88 275.99"/><polygon class="cls-17" points="653.1 177.31 631.51 191.43 647.89 191 653.1 177.31"/><polygon class="cls-17" points="677.53 167.88 670.26 161.06 663.72 179.75 677.53 167.88"/><polygon class="cls-18" points="670.26 161.06 653.1 177.31 663.72 179.75 670.26 161.06"/><polygon class="cls-18" points="663.72 179.75 653.1 177.31 647.89 191 663.72 179.75"/><polygon class="cls-25" points="647.89 191 631.51 191.43 637.9 203.76 647.89 191"/><polygon class="cls-25" points="637.9 203.76 631.51 191.43 615.94 211.15 637.9 203.76"/><polygon class="cls-20" points="694.33 172.84 691.32 157.53 677.53 167.88 694.33 172.84"/><polygon class="cls-7" points="582.46 27.66 569.4 37.81 591.53 44.52 582.46 27.66"/><polygon class="cls-17" points="705.21 176.7 705.6 167.09 694.33 172.84 705.21 176.7"/><polygon class="cls-7" points="682.13 190.81 705.21 176.7 688.76 181.3 682.13 190.81"/><polygon class="cls-8" points="705.6 167.09 691.32 157.53 694.33 172.84 705.6 167.09"/><polygon class="cls-26" points="631.51 191.43 597.24 213.25 615.94 211.15 631.51 191.43"/><polygon class="cls-20" points="691.32 157.53 670.26 161.06 677.53 167.88 691.32 157.53"/><polygon class="cls-26" points="607.06 218.85 597.24 213.25 586.91 225.22 607.06 218.85"/><polygon class="cls-20" points="225.74 310.37 202.65 275.68 194.35 308.13 225.74 310.37"/><polygon class="cls-14" points="202.65 275.68 151.63 309.92 194.35 308.13 202.65 275.68"/><polygon class="cls-1" points="153.17 430.05 202.41 437.45 212.33 406.91 153.17 430.05"/><polygon class="cls-9" points="122.03 369.87 195.32 346.84 151.63 309.92 122.03 369.87"/><polygon class="cls-8" points="194.35 308.13 195.32 346.84 225.74 310.37 194.35 308.13"/><polygon class="cls-7" points="151.63 309.92 195.32 346.84 194.35 308.13 151.63 309.92"/><polygon class="cls-23" points="586.91 225.22 571.47 227.16 603.22 232.08 586.91 225.22"/><polygon class="cls-12" points="680.66 181.19 682.13 190.81 688.76 181.3 680.66 181.19"/><polygon class="cls-27" points="597.24 213.25 571.47 227.16 586.91 225.22 597.24 213.25"/><polygon class="cls-26" points="615.94 211.15 597.24 213.25 607.06 218.85 615.94 211.15"/><polygon class="cls-3" points="120.03 461.51 202.41 437.45 153.17 430.05 120.03 461.51"/><polygon class="cls-22" points="603.22 232.08 571.47 227.16 623.22 242.8 603.22 232.08"/><polygon class="cls-14" points="688.76 181.3 705.21 176.7 694.33 172.84 688.76 181.3"/><polygon class="cls-25" points="670.63 193.07 647.89 191 651.63 204.4 670.63 193.07"/><polygon class="cls-17" points="680.66 181.19 663.72 179.75 670.63 193.07 680.66 181.19"/><polygon class="cls-20" points="647.89 191 637.9 203.76 651.63 204.4 647.89 191"/><polygon class="cls-20" points="663.72 179.75 647.89 191 670.63 193.07 663.72 179.75"/><polygon class="cls-19" points="670.63 193.07 682.13 190.81 680.66 181.19 670.63 193.07"/><polygon class="cls-19" points="651.63 204.4 637.9 203.76 645.18 218.45 651.63 204.4"/><polygon class="cls-11" points="694.33 172.84 677.53 167.88 680.66 181.19 694.33 172.84"/><polygon class="cls-26" points="623.22 242.8 643.77 228.63 623.06 236.42 623.22 242.8"/><polygon class="cls-11" points="623.06 236.42 643.77 228.63 603.22 232.08 623.06 236.42"/><polygon class="cls-20" points="677.53 167.88 663.72 179.75 680.66 181.19 677.53 167.88"/><polygon class="cls-18" points="603.22 232.08 623.22 242.8 623.06 236.42 603.22 232.08"/><polygon class="cls-20" points="637.9 203.76 615.94 211.15 626.07 222.18 637.9 203.76"/><polygon class="cls-13" points="688.76 181.3 694.33 172.84 680.66 181.19 688.76 181.3"/><polygon class="cls-26" points="645.18 218.45 637.9 203.76 626.07 222.18 645.18 218.45"/><polygon class="cls-28" points="626.07 222.18 643.77 228.63 645.18 218.45 626.07 222.18"/><polygon class="cls-12" points="645.18 218.45 654.73 216.97 651.63 204.4 645.18 218.45"/><polygon class="cls-12" points="643.77 228.63 654.73 216.97 645.18 218.45 643.77 228.63"/><polygon class="cls-20" points="615.94 211.15 607.06 218.85 626.07 222.18 615.94 211.15"/><polygon class="cls-12" points="651.63 204.4 667.97 207.19 670.63 193.07 651.63 204.4"/><polygon class="cls-8" points="667.97 207.19 682.13 190.81 670.63 193.07 667.97 207.19"/><polygon class="cls-8" points="654.73 216.97 667.97 207.19 651.63 204.4 654.73 216.97"/><polygon class="cls-18" points="607.06 218.85 586.91 225.22 614.54 227.84 607.06 218.85"/><polygon class="cls-25" points="626.07 222.18 607.06 218.85 614.54 227.84 626.07 222.18"/><polygon class="cls-29" points="614.54 227.84 643.77 228.63 626.07 222.18 614.54 227.84"/><polygon class="cls-20" points="603.22 232.08 643.77 228.63 614.54 227.84 603.22 232.08"/><polygon class="cls-22" points="586.91 225.22 603.22 232.08 614.54 227.84 586.91 225.22"/><polygon class="cls-13" points="836.16 204.2 831.34 193.65 818.94 215.23 836.16 204.2"/><polygon class="cls-15" points="852.98 281.02 842.64 272.06 845.96 285.25 852.98 281.02"/><polygon class="cls-7" points="768.06 255.3 767.88 255.19 767.43 255.34 768.06 255.3"/><polygon class="cls-6" points="809.06 241.13 817.81 231.69 792.09 247.08 809.06 241.13"/><polygon class="cls-16" points="845.96 285.25 842.64 272.06 829.8 284.5 845.96 285.25"/><polygon class="cls-9" points="661.81 312.96 672.92 294.63 643.91 299.74 661.81 312.96"/><polygon class="cls-1" points="240.25 400.37 280.65 363.25 237.78 378.52 240.25 400.37"/><polygon class="cls-3" points="842.64 272.06 824.03 270.17 829.8 284.5 842.64 272.06"/><polygon class="cls-1" points="843.17 194.02 831.34 193.65 836.16 204.2 843.17 194.02"/><polygon class="cls-14" points="515.99 287.43 547.13 276.79 519.16 274.35 515.99 287.43"/><polygon class="cls-14" points="818.94 215.23 783.75 226.54 817.81 231.69 818.94 215.23"/><polygon class="cls-14" points="856.43 204.3 843.17 194.02 836.16 204.2 856.43 204.3"/><polygon class="cls-4" points="802.93 205.46 783.75 226.54 818.94 215.23 802.93 205.46"/><polygon class="cls-13" points="831.34 193.65 802.93 205.46 818.94 215.23 831.34 193.65"/><polygon class="cls-3" points="515.99 287.43 505.23 304.79 547.34 292.95 515.99 287.43"/><polygon class="cls-2" points="505.23 304.79 555.35 304.88 547.34 292.95 505.23 304.79"/><polygon class="cls-9" points="453.7 298.13 505.23 304.79 515.99 287.43 453.7 298.13"/><polygon class="cls-9" points="555.35 304.88 576.79 293.61 547.34 292.95 555.35 304.88"/><polygon class="cls-7" points="566.95 277.71 547.13 276.79 547.34 292.95 566.95 277.71"/><polygon class="cls-1" points="576.79 293.61 566.95 277.71 547.34 292.95 576.79 293.61"/><polygon class="cls-15" points="636.47 287.25 591.47 277.01 576.79 293.61 636.47 287.25"/><polygon class="cls-3" points="620.42 272.32 591.47 277.01 636.47 287.25 620.42 272.32"/><polygon class="cls-13" points="438.49 166.61 390.56 194.25 415.47 243.07 438.49 166.61"/><polygon class="cls-1" points="519.16 274.35 453.7 298.13 515.99 287.43 519.16 274.35"/><polygon class="cls-1" points="591.47 277.01 566.95 277.71 576.79 293.61 591.47 277.01"/><polygon class="cls-7" points="237.78 378.52 280.65 363.25 258.08 306.04 237.78 378.52"/><polygon class="cls-3" points="582.73 59.95 565.45 60.88 545.86 101.11 582.73 59.95"/><polygon class="cls-9" points="458.83 107.97 414.79 128.65 471.98 124.12 458.83 107.97"/><polygon class="cls-7" points="469.08 151.41 487.31 135.93 471.98 124.12 469.08 151.41"/><polygon class="cls-1" points="511.02 89.07 458.83 107.97 545.86 101.11 511.02 89.07"/><polygon class="cls-15" points="507.36 120.59 458.83 107.97 471.98 124.12 507.36 120.59"/><polygon class="cls-1" points="487.31 135.93 507.36 120.59 471.98 124.12 487.31 135.93"/><polygon class="cls-3" points="498 72.05 458.83 107.97 511.02 89.07 498 72.05"/><polygon class="cls-1" points="545.86 101.11 458.83 107.97 507.36 120.59 545.86 101.11"/><polygon class="cls-13" points="531.8 65.78 498 72.05 511.02 89.07 531.8 65.78"/><polygon class="cls-1" points="569.4 37.81 565.45 60.88 591.53 44.52 569.4 37.81"/><polygon class="cls-29" points="591.53 44.52 565.45 60.88 582.73 59.95 591.53 44.52"/><polygon class="cls-7" points="565.45 60.88 531.8 65.78 511.02 89.07 565.45 60.88"/><polygon class="cls-9" points="545.86 101.11 565.45 60.88 511.02 89.07 545.86 101.11"/><polygon class="cls-13" points="757.33 194.7 743.88 185.83 741.26 201.88 757.33 194.7"/><polygon class="cls-13" points="743.88 185.83 728.16 188.61 741.26 201.88 743.88 185.83"/><polygon class="cls-6" points="861.94 213.95 856.43 204.3 841.41 214.18 861.94 213.95"/><polygon class="cls-7" points="471.98 124.12 414.79 128.65 469.08 151.41 471.98 124.12"/><polygon class="cls-9" points="872.67 201.38 862.9 193.39 856.43 204.3 872.67 201.38"/><polygon class="cls-1" points="862.9 193.39 843.17 194.02 856.43 204.3 862.9 193.39"/><polygon class="cls-3" points="766.86 177.6 756.02 170.99 757.33 194.7 766.86 177.6"/><polygon class="cls-3" points="756.02 170.99 743.88 185.83 757.33 194.7 756.02 170.99"/><polygon class="cls-3" points="779.09 154.28 759.93 156.49 780.29 163.73 779.09 154.28"/><polygon class="cls-13" points="759.93 156.49 756.02 170.99 780.29 163.73 759.93 156.49"/><polygon class="cls-9" points="775.36 177.59 780.29 163.73 766.86 177.6 775.36 177.59"/><polygon class="cls-7" points="780.29 163.73 756.02 170.99 766.86 177.6 780.29 163.73"/><polygon class="cls-7" points="547.34 292.95 547.13 276.79 515.99 287.43 547.34 292.95"/><polygon class="cls-30" points="759.93 156.49 734.64 170.9 756.02 170.99 759.93 156.49"/><polygon class="cls-18" points="734.64 170.9 713.12 192.33 728.16 188.61 734.64 170.9"/><polygon class="cls-17" points="703.26 208.29 684.95 212.63 683.72 224.96 703.26 208.29"/><polygon class="cls-20" points="713.12 192.33 684.95 212.63 703.26 208.29 713.12 192.33"/><polygon class="cls-20" points="779.09 154.28 756.42 149.62 759.93 156.49 779.09 154.28"/><polygon class="cls-25" points="759.93 156.49 756.42 149.62 741.83 157.56 759.93 156.49"/><polygon class="cls-25" points="743.88 185.83 734.64 170.9 728.16 188.61 743.88 185.83"/><polygon class="cls-1" points="780.29 163.73 790.31 156.26 779.09 154.28 780.29 163.73"/><polygon class="cls-1" points="794.36 166.3 790.31 156.26 780.29 163.73 794.36 166.3"/><polygon class="cls-17" points="779.09 154.28 776.86 145.51 756.42 149.62 779.09 154.28"/><polygon class="cls-1" points="790.31 156.26 776.86 145.51 779.09 154.28 790.31 156.26"/><polygon class="cls-22" points="756.02 170.99 734.64 170.9 743.88 185.83 756.02 170.99"/><polygon class="cls-17" points="741.83 157.56 734.64 170.9 759.93 156.49 741.83 157.56"/><polygon class="cls-6" points="758.52 204.27 770.13 189.43 757.33 194.7 758.52 204.27"/><polygon class="cls-2" points="757.33 194.7 770.13 189.43 766.86 177.6 757.33 194.7"/><polygon class="cls-15" points="741.26 201.88 758.52 204.27 757.33 194.7 741.26 201.88"/><polygon class="cls-5" points="775.36 177.59 794.36 166.3 780.29 163.73 775.36 177.59"/><polygon class="cls-16" points="766.86 177.6 770.13 189.43 775.36 177.59 766.86 177.6"/><polygon class="cls-14" points="739.88 215.95 758.52 204.27 741.26 201.88 739.88 215.95"/><polygon class="cls-6" points="770.13 189.43 794.36 166.3 775.36 177.59 770.13 189.43"/><polygon class="cls-25" points="684.95 212.63 664.88 230.2 683.72 224.96 684.95 212.63"/><polygon class="cls-29" points="623.22 242.8 571.47 227.16 585.02 240.62 623.22 242.8"/><polygon class="cls-4" points="598.3 260.97 623.22 242.8 572.11 254.04 598.3 260.97"/><polygon class="cls-9" points="572.11 254.04 623.22 242.8 585.02 240.62 572.11 254.04"/><polygon class="cls-13" points="572.11 254.04 571.47 227.16 540.49 223.74 572.11 254.04"/><polygon class="cls-3" points="585.02 240.62 571.47 227.16 572.11 254.04 585.02 240.62"/><polygon class="cls-4" points="621.04 258.88 623.22 242.8 598.3 260.97 621.04 258.88"/><polygon class="cls-18" points="673.72 232.55 664.88 230.2 643.42 241.91 673.72 232.55"/><polygon class="cls-14" points="649.59 246.17 649.5 246.11 623.22 242.8 621.04 258.88 649.59 246.17"/><polygon class="cls-17" points="683.72 224.96 664.88 230.2 673.72 232.55 683.72 224.96"/><polygon class="cls-20" points="664.88 230.2 623.22 242.8 643.42 241.91 664.88 230.2"/><polygon class="cls-27" points="643.42 241.91 623.22 242.8 649.5 246.11 643.42 241.91"/><polygon class="cls-9" points="881.62 213.32 882.18 204.32 872.67 201.38 881.62 213.32"/><polygon class="cls-3" points="740.35 223.68 740.57 223.6 758.52 204.27 739.88 215.95 740.35 223.68"/><polygon class="cls-12" points="861.2 182 834.04 180.74 862.9 193.39 861.2 182"/><polygon class="cls-6" points="856.43 204.3 881.62 213.32 872.67 201.38 856.43 204.3"/><polygon class="cls-3" points="882.18 204.32 877.43 188.78 872.67 201.38 882.18 204.32"/><polygon class="cls-14" points="877.43 188.78 861.2 182 862.9 193.39 877.43 188.78"/><polygon class="cls-1" points="872.67 201.38 877.43 188.78 862.9 193.39 872.67 201.38"/><polygon class="cls-4" points="571.47 227.16 516.87 200.15 540.49 223.74 571.47 227.16"/><polygon class="cls-31" points="809.06 241.13 843.33 230.52 817.81 231.69 809.06 241.13"/><polygon class="cls-3" points="817.81 231.69 843.33 230.52 818.94 215.23 817.81 231.69"/><polygon class="cls-16" points="801.39 253.08 824.4 240.75 843.33 230.52 809.06 241.13 801.39 253.08"/><polygon class="cls-31" points="843.33 230.52 881.62 213.32 861.94 213.95 843.33 230.52"/><polygon class="cls-6" points="818.94 215.23 843.33 230.52 841.41 214.18 818.94 215.23"/><polygon class="cls-6" points="841.41 214.18 843.33 230.52 861.94 213.95 841.41 214.18"/><polygon class="cls-1" points="861.94 213.95 881.62 213.32 856.43 204.3 861.94 213.95"/><polygon class="cls-20" points="783.75 226.54 786.08 205.86 776.02 216.9 783.75 226.54"/><polygon class="cls-17" points="757.68 231.33 751.79 219.58 736.75 236.09 757.68 231.33"/><polygon class="cls-21" points="783.75 226.54 776.02 216.9 751.79 219.58 783.75 226.54"/><polygon class="cls-25" points="751.79 219.58 776.02 216.9 786.08 205.86 751.79 219.58"/><polygon class="cls-12" points="783.75 226.54 751.79 219.58 757.68 231.33 783.75 226.54"/><polygon class="cls-7" points="862.9 193.39 834.04 180.74 843.17 194.02 862.9 193.39"/><polygon class="cls-7" points="740.35 223.83 740.57 223.6 740.35 223.68 740.35 223.83"/><polygon class="cls-17" points="736.75 236.09 751.79 219.58 740.57 223.6 740.35 223.83 736.75 236.09"/><polygon class="cls-12" points="802.93 205.46 786.08 205.86 783.75 226.54 802.93 205.46"/><polygon class="cls-32" points="834.04 180.74 808.34 192.12 831.34 193.65 834.04 180.74"/><polygon class="cls-26" points="843.17 194.02 834.04 180.74 831.34 193.65 843.17 194.02"/><polygon class="cls-11" points="808.34 192.12 786.08 205.86 802.93 205.46 808.34 192.12"/><polygon class="cls-20" points="831.34 193.65 808.34 192.12 802.93 205.46 831.34 193.65"/><polygon class="cls-1" points="503.58 132.91 526.4 122.89 507.36 120.59 503.58 132.91"/><polygon class="cls-17" points="389.54 116.51 369.62 137.01 414.79 128.65 389.54 116.51"/><polygon class="cls-18" points="443.08 100.18 411.2 113.55 414.79 128.65 443.08 100.18"/><polygon class="cls-1" points="414.79 128.65 369.62 137.01 367.82 175.59 414.79 128.65"/><polygon class="cls-18" points="411.2 113.55 389.54 116.51 414.79 128.65 411.2 113.55"/><polygon class="cls-17" points="367.82 175.59 369.62 137.01 345.73 163.62 367.82 175.59"/><polygon class="cls-11" points="321.52 159.3 275.73 191.04 345.73 163.62 321.52 159.3"/><polygon class="cls-27" points="369.62 137.01 321.52 159.3 345.73 163.62 369.62 137.01"/><polygon class="cls-22" points="516.14 56.18 496.29 60.62 498 72.05 516.14 56.18"/><polygon class="cls-12" points="458.83 107.97 443.08 100.18 414.79 128.65 458.83 107.97"/><polygon class="cls-20" points="496.29 60.62 476.59 78.44 498 72.05 496.29 60.62"/><polygon class="cls-12" points="530.4 46.95 516.14 56.18 531.8 65.78 530.4 46.95"/><polygon class="cls-28" points="498 72.05 476.59 78.44 458.83 107.97 498 72.05"/><polygon class="cls-22" points="476.59 78.44 443.08 100.18 458.83 107.97 476.59 78.44"/><polygon class="cls-26" points="531.8 65.78 516.14 56.18 498 72.05 531.8 65.78"/><polygon class="cls-33" points="218.94 247.26 184.97 271.67 202.65 275.68 218.94 247.26"/><polygon class="cls-18" points="164.64 278.62 138.63 297.41 151.63 309.92 164.64 278.62"/><polygon class="cls-7" points="184.97 271.67 164.64 278.62 202.65 275.68 184.97 271.67"/><polygon class="cls-26" points="202.65 275.68 164.64 278.62 151.63 309.92 202.65 275.68"/><polygon class="cls-23" points="345.73 163.62 275.73 191.04 263.56 227.87 345.73 163.62"/><polygon class="cls-13" points="540.49 223.74 516.87 200.15 487.1 203.04 540.49 223.74"/><polygon class="cls-12" points="138.63 297.41 90.01 324.97 151.63 309.92 138.63 297.41"/><polygon class="cls-22" points="236.11 225.08 218.94 247.26 263.56 227.87 236.11 225.08"/><polygon class="cls-12" points="275.73 191.04 236.11 225.08 263.56 227.87 275.73 191.04"/><polygon class="cls-29" points="265.38 268.24 218.94 247.26 225.74 310.37 265.38 268.24"/><polygon class="cls-18" points="225.74 310.37 218.94 247.26 202.65 275.68 225.74 310.37"/><polygon class="cls-20" points="263.56 227.87 218.94 247.26 265.38 268.24 263.56 227.87"/><polygon class="cls-6" points="792.09 247.08 801.39 253.08 809.06 241.13 792.09 247.08"/><polygon class="cls-7" points="487.31 135.93 503.58 132.91 507.36 120.59 487.31 135.93"/><polygon class="cls-15" points="484.37 152.12 503.58 132.91 487.31 135.93 484.37 152.12"/><polygon class="cls-7" points="526.4 122.89 538.05 115.5 561.39 102.09 507.36 120.59 526.4 122.89"/><polygon class="cls-1" points="507.36 120.59 561.39 102.09 545.86 101.11 507.36 120.59"/><polygon class="cls-3" points="469.08 151.41 484.37 152.12 487.31 135.93 469.08 151.41"/><polygon class="cls-2" points="472.17 173.16 484.37 152.12 444.57 184.09 472.17 173.16"/><polygon class="cls-19" points="487.1 203.04 472.17 173.16 467.2 189.37 487.1 203.04"/><polygon class="cls-8" points="516.87 200.15 472.17 173.16 487.1 203.04 516.87 200.15"/><polygon class="cls-3" points="545.86 101.11 561.39 102.09 582.73 59.95 545.86 101.11"/><polygon class="cls-1" points="444.57 184.09 484.37 152.12 469.08 151.41 444.57 184.09"/><polygon class="cls-26" points="467.2 189.37 472.17 173.16 444.57 184.09 467.2 189.37"/><polygon class="cls-7" points="598.74 52.12 601.61 31.47 591.53 44.52 598.74 52.12"/><polygon class="cls-13" points="584.51 10.97 562.54 24.45 569.4 37.81 584.51 10.97"/><polygon class="cls-28" points="562.54 24.45 545.59 41.99 569.4 37.81 562.54 24.45"/><polygon class="cls-12" points="582.46 27.66 584.51 10.97 569.4 37.81 582.46 27.66"/><polygon class="cls-26" points="596.07 15.36 584.51 10.97 582.46 27.66 596.07 15.36"/><polygon class="cls-12" points="569.4 37.81 545.59 41.99 565.45 60.88 569.4 37.81"/><polygon class="cls-20" points="565.45 60.88 545.59 41.99 531.8 65.78 565.45 60.88"/><polygon class="cls-26" points="545.59 41.99 530.4 46.95 531.8 65.78 545.59 41.99"/><polygon class="cls-9" points="582.73 59.95 598.74 52.12 591.53 44.52 582.73 59.95"/><polygon class="cls-1" points="583.58 77.95 598.74 52.12 582.73 59.95 583.58 77.95"/><polygon class="cls-7" points="601.61 31.47 596.07 15.36 591.53 44.52 601.61 31.47"/><polygon class="cls-1" points="561.39 102.09 583.58 77.95 582.73 59.95 561.39 102.09"/><polygon class="cls-7" points="591.53 44.52 596.07 15.36 582.46 27.66 591.53 44.52"/><polygon class="cls-13" points="621.04 258.88 598.3 260.97 620.42 272.32 621.04 258.88"/><polygon class="cls-3" points="469.08 151.41 414.79 128.65 438.49 166.61 469.08 151.41"/><polygon class="cls-12" points="415.47 243.07 444.57 184.09 438.49 166.61 415.47 243.07"/><polygon class="cls-7" points="414.79 128.65 367.82 175.59 438.49 166.61 414.79 128.65"/><polygon class="cls-3" points="237.41 420.2 267.44 394.51 240.25 400.37 237.41 420.2"/><polygon class="cls-4" points="438.49 166.61 367.82 175.59 390.56 194.25 438.49 166.61"/><polygon class="cls-14" points="390.56 194.25 367.82 175.59 323.39 223.18 390.56 194.25"/><polygon class="cls-13" points="508.19 239.69 487.1 203.04 476.79 228.55 508.19 239.69"/><polygon class="cls-29" points="367.82 175.59 345.73 163.62 323.39 223.18 367.82 175.59"/><polygon class="cls-14" points="540.49 223.74 487.1 203.04 508.19 239.69 540.49 223.74"/><polygon class="cls-16" points="543.74 250.17 540.49 223.74 508.19 239.69 543.74 250.17"/><polygon class="cls-26" points="467.2 189.37 444.57 184.09 415.47 243.07 467.2 189.37"/><polygon class="cls-12" points="476.79 228.55 467.2 189.37 415.47 243.07 476.79 228.55"/><polygon class="cls-26" points="487.1 203.04 467.2 189.37 476.79 228.55 487.1 203.04"/><polygon class="cls-20" points="265.38 268.24 225.74 310.37 258.08 306.04 265.38 268.24"/><polygon class="cls-3" points="169.08 395.41 212.33 406.91 237.78 378.52 169.08 395.41"/><polygon class="cls-3" points="767.88 255.19 768.06 255.3 801.39 253.08 792.09 247.08 767.88 255.19"/><polygon class="cls-1" points="237.78 378.52 212.33 406.91 240.25 400.37 237.78 378.52"/><polygon class="cls-3" points="195.32 346.84 169.08 395.41 237.78 378.52 195.32 346.84"/><polygon class="cls-1" points="212.33 406.91 202.41 437.45 240.25 400.37 212.33 406.91"/><polygon class="cls-2" points="202.41 437.45 237.41 420.2 240.25 400.37 202.41 437.45"/><polygon class="cls-25" points="263.56 227.87 265.38 268.24 323.39 223.18 263.56 227.87"/><polygon class="cls-7" points="258.08 306.04 225.74 310.37 237.78 378.52 258.08 306.04"/><polygon class="cls-11" points="345.73 163.62 263.56 227.87 323.39 223.18 345.73 163.62"/><polygon class="cls-29" points="323.39 223.18 265.38 268.24 314.63 267.96 323.39 223.18"/><polygon class="cls-1" points="572.11 254.04 540.49 223.74 543.74 250.17 572.11 254.04"/><polygon class="cls-13" points="314.63 267.96 265.38 268.24 258.08 306.04 314.63 267.96"/><polygon class="cls-9" points="444.57 184.09 469.08 151.41 438.49 166.61 444.57 184.09"/><polygon class="cls-18" points="690.47 235.37 673.72 232.55 660.66 240.55 690.47 235.37"/><polygon class="cls-18" points="712.01 217.78 683.72 224.96 700.62 225.34 712.01 217.78"/><polygon class="cls-17" points="683.72 224.96 673.72 232.55 700.62 225.34 683.72 224.96"/><polygon class="cls-7" points="649.5 246.11 649.59 246.17 649.68 246.13 649.5 246.11"/><polygon class="cls-22" points="673.72 232.55 643.42 241.91 660.66 240.55 673.72 232.55"/><polygon class="cls-17" points="660.66 240.55 643.42 241.91 649.5 246.11 649.68 246.13 660.66 240.55"/><polygon class="cls-20" points="700.62 225.34 673.72 232.55 690.47 235.37 700.62 225.34"/><polygon class="cls-13" points="712.01 217.78 739.88 215.95 720.83 205.27 712.01 217.78"/><polygon class="cls-1" points="739.88 215.95 741.26 201.88 720.83 205.27 739.88 215.95"/><polygon class="cls-12" points="703.26 208.29 712.01 217.78 720.83 205.27 703.26 208.29"/><polygon class="cls-26" points="713.12 192.33 703.26 208.29 720.83 205.27 713.12 192.33"/><polygon class="cls-26" points="712.01 217.78 703.26 208.29 683.72 224.96 712.01 217.78"/><polygon class="cls-8" points="741.26 201.88 728.16 188.61 720.83 205.27 741.26 201.88"/><polygon class="cls-20" points="728.16 188.61 713.12 192.33 720.83 205.27 728.16 188.61"/><polygon class="cls-4" points="591.47 277.01 572.11 254.04 566.95 277.71 591.47 277.01"/><polygon class="cls-9" points="620.42 272.32 598.3 260.97 591.47 277.01 620.42 272.32"/><polygon class="cls-7" points="649.68 246.13 649.59 246.17 649.74 246.14 649.68 246.13"/><polygon class="cls-3" points="718.36 222.67 739.88 215.95 712.01 217.78 718.36 222.67"/><polygon class="cls-4" points="649.59 246.17 621.04 258.88 620.42 272.32 649.59 246.17"/><polygon class="cls-15" points="547.13 276.79 572.11 254.04 543.74 250.17 547.13 276.79"/><polygon class="cls-4" points="566.95 277.71 572.11 254.04 547.13 276.79 566.95 277.71"/><polygon class="cls-7" points="598.3 260.97 572.11 254.04 591.47 277.01 598.3 260.97"/><polygon class="cls-7" points="649.74 246.14 649.59 246.17 650.26 246.2 649.74 246.14"/><polygon class="cls-4" points="636.47 287.25 649.59 246.17 620.42 272.32 636.47 287.25"/><polygon class="cls-20" points="673.97 249.91 660.21 247.46 650.26 246.2 649.59 246.17 670.14 260.89 673.97 249.91"/><polygon class="cls-29" points="660.33 276.22 649.59 246.17 636.47 287.25 660.33 276.22"/><polygon class="cls-8" points="670.14 260.89 649.59 246.17 660.33 276.22 670.14 260.89"/><polygon class="cls-5" points="225.74 310.37 195.32 346.84 237.78 378.52 225.74 310.37"/><polygon class="cls-6" points="774.43 303.18 801.99 302.77 787.97 293.31 774.43 303.18"/><polygon class="cls-3" points="780.85 282.36 774.43 303.18 787.97 293.31 780.85 282.36"/><polygon class="cls-3" points="757.77 278.86 774.43 303.18 780.85 282.36 757.77 278.86"/><polygon class="cls-16" points="787.97 293.31 801.99 302.77 810.85 290.82 787.97 293.31"/><polygon class="cls-2" points="817.29 299.24 834.84 298.41 829.8 284.5 817.29 299.24"/><polygon class="cls-7" points="801.99 302.77 817.29 299.24 810.85 290.82 801.99 302.77"/><polygon class="cls-3" points="810.85 290.82 817.29 299.24 829.8 284.5 810.85 290.82"/><polygon class="cls-1" points="734.61 282.01 742.32 309.33 757.77 278.86 734.61 282.01"/><polygon class="cls-1" points="715.79 294.5 742.32 309.33 734.61 282.01 715.79 294.5"/><polygon class="cls-2" points="713.72 315.38 742.32 309.33 715.79 294.5 713.72 315.38"/><polygon class="cls-6" points="755.82 299.56 774.43 303.18 757.77 278.86 755.82 299.56"/><polygon class="cls-6" points="742.32 309.33 774.43 303.18 755.82 299.56 742.32 309.33"/><polygon class="cls-3" points="757.77 278.86 742.32 309.33 755.82 299.56 757.77 278.86"/><polygon class="cls-7" points="852.98 281.02 850.28 266.58 842.64 272.06 852.98 281.02"/><polygon class="cls-7" points="842.64 272.06 833.07 258.39 824.03 270.17 842.64 272.06"/><polygon class="cls-1" points="829.8 284.5 834.84 298.41 845.96 285.25 829.8 284.5"/><polygon class="cls-13" points="824.03 270.17 833.07 258.39 806.65 259.5 824.03 270.17"/><polygon class="cls-14" points="833.07 258.39 801.39 253.08 806.65 259.5 833.07 258.39"/><polygon class="cls-2" points="702.52 302.93 713.72 315.38 715.79 294.5 702.52 302.93"/><polygon class="cls-19" points="768.13 255.34 768.06 255.3 767.43 255.34 806.65 259.5 801.39 253.08 768.06 255.3 768.13 255.34"/><polygon class="cls-1" points="850.28 266.58 833.07 258.39 842.64 272.06 850.28 266.58"/><polygon class="cls-15" points="853.87 295.2 858.03 291.51 845.96 285.25 853.87 295.2"/><polygon class="cls-31" points="834.84 298.41 853.87 295.2 845.96 285.25 834.84 298.41"/><polygon class="cls-3" points="845.96 285.25 858.03 291.51 852.98 281.02 845.96 285.25"/><polygon class="cls-3" points="860.19 276.89 850.28 266.58 852.98 281.02 860.19 276.89"/><polygon class="cls-5" points="858.03 291.51 860.19 276.89 852.98 281.02 858.03 291.51"/><polygon class="cls-3" points="661.81 312.96 672.36 323.12 672.92 294.63 661.81 312.96"/><polygon class="cls-16" points="550.6 325 578.56 326.41 575.49 317.93 550.6 325"/><polygon class="cls-6" points="508.77 344.49 534.08 341.57 515.64 337.97 508.77 344.49"/><polygon class="cls-15" points="450.56 346.82 508.77 344.49 500.45 331.26 450.56 346.82"/><polygon class="cls-3" points="500.45 331.26 508.77 344.49 515.64 337.97 500.45 331.26"/><polygon class="cls-6" points="534.08 341.57 578.56 326.41 550.6 325 534.08 341.57"/><polygon class="cls-31" points="515.64 337.97 534.08 341.57 550.6 325 515.64 337.97"/><polygon class="cls-9" points="476.93 308.22 450.56 346.82 500.45 331.26 476.93 308.22"/><polygon class="cls-15" points="267.44 394.51 320.18 372.3 280.65 363.25 267.44 394.51"/><polygon class="cls-9" points="280.65 363.25 320.18 372.3 373.7 323.97 280.65 363.25"/><polygon class="cls-3" points="320.18 372.3 367.01 363.05 450.56 346.82 389.79 342.04 320.18 372.3"/><polygon class="cls-16" points="389.79 342.04 450.56 346.82 476.93 308.22 389.79 342.04"/><polygon class="cls-16" points="373.7 323.97 320.18 372.3 389.79 342.04 373.7 323.97"/><polygon class="cls-6" points="575.49 317.93 578.56 326.41 601.53 319.82 575.49 317.93"/><polygon class="cls-1" points="653.46 321.9 672.36 323.12 661.81 312.96 653.46 321.9"/><polygon class="cls-3" points="240.25 400.37 267.44 394.51 280.65 363.25 240.25 400.37"/><polygon class="cls-5" points="630.23 317.05 653.46 321.9 643.91 299.74 630.23 317.05"/><polygon class="cls-5" points="643.91 299.74 653.46 321.9 661.81 312.96 643.91 299.74"/><polygon class="cls-16" points="672.36 323.12 690.56 318.22 672.92 294.63 672.36 323.12"/><polygon class="cls-6" points="672.92 294.63 690.56 318.22 702.52 302.93 672.92 294.63"/><polygon class="cls-34" points="578.56 326.41 630.23 317.05 601.53 319.82 578.56 326.41"/><polygon class="cls-16" points="601.53 319.82 630.23 317.05 599.25 314.79 601.53 319.82"/><polygon class="cls-3" points="690.56 318.22 713.72 315.38 702.52 302.93 690.56 318.22"/><polygon class="cls-7" points="605.6 312.6 630.23 317.05 614.54 301.86 605.6 312.6"/><polygon class="cls-7" points="599.25 314.79 630.23 317.05 605.6 312.6 599.25 314.79"/><polygon class="cls-1" points="614.54 301.86 630.23 317.05 643.91 299.74 614.54 301.86"/><polygon class="cls-3" points="856.43 204.3 836.16 204.2 841.41 214.18 856.43 204.3"/><polygon class="cls-1" points="841.41 214.18 836.16 204.2 818.94 215.23 841.41 214.18"/><polygon class="cls-26" points="712.01 217.78 700.62 225.34 709.54 230.06 712.01 217.78"/><polygon class="cls-21" points="709.54 230.06 700.62 225.34 690.47 235.37 709.54 230.06"/><polygon class="cls-1" points="169.08 395.41 153.17 430.05 115.53 430.85 169.08 395.41"/><polygon class="cls-1" points="66.37 374.93 107.45 362.38 119.88 337.55 66.37 374.93"/><polygon class="cls-20" points="91.25 341.99 53.73 372.17 57.77 340.42 91.25 341.99"/><polygon class="cls-8" points="110.25 380.63 44.83 430.1 61.8 394.78 110.25 380.63"/><polygon class="cls-3" points="96.7 420.85 110.25 380.63 148.85 369.57 96.7 420.85"/><polygon class="cls-1" points="90.86 467.81 104.52 450.67 68.83 459.13 90.86 467.81"/><path class="cls-35" d="M65.23,475.87a.36.36,0,0,0-.26-.16h-.12l-38.61,9.15a.36.36,0,0,0,0,.68L50,494.95a.36.36,0,0,0,.41-.11l14.78-18.55a.36.36,0,0,0,0-.42ZM27.52,485.3,64,476.65,50,494.18Z"/><path class="cls-35" d="M49.32,340.42l65.92-16.09-.37.75L83.55,388.48a.36.36,0,0,0,.22.5.35.35,0,0,0,.21,0l78.46-24.65L134.5,416,76.65,454.32a.36.36,0,0,0-.14.41.35.35,0,0,0,.35.25l39.79-.84-35.18,33.4a.36.36,0,0,0,.35.61l89.07-26a.3.3,0,0,0,.16-.06l37.82-18.63,0,0,0,0,32.44-27.76,57-24,50.63-10,90.36-17.56,63-2.52h0l27.38-3.16h.07l48.1-16.4,55.8-10.1,25.06,5.23h.05l20.45,1.32h.12L699,333.12l25-3.07h0L755,323.5l34.71-6.65,29.78-.44h.08l16.53-3.82,19-.89h0l20.59-3.48h0l.12-.06,0,0h0l4.51-4h0l0,0a.35.35,0,0,0,.07-.14v0h0l2.34-15.82a.36.36,0,0,0,0-.18l0,0a.34.34,0,0,0,0-.07L872,276.65l-.1-.08-18.62-8.86-.1,0L820,262.11,833.24,255l10.7-5.73,20.48-11.06,41.4-18.6.05,0,.05,0,0,0h0v0a.33.33,0,0,0,0-.06v0s0,0,0,0h0v0l.61-9.74a.37.37,0,0,0,0-.13l-5.14-16.81,0-.06,0,0,0,0h0l0,0-.06,0-17.57-7.33-.1,0h0l-29.39-1.37H854L826.24,196h0l0,0h0l-24,14.84-37.07,14.83-10.75,3.85,18.42-19.83h0l0,0,12.54-16,26.19-25h0l0,0s0,0,0,0l0-.07,0,0v0a.35.35,0,0,0,0,0h0s0,0,0-.05l0,0a.34.34,0,0,0,0,0h0l-4.38-10.86a.35.35,0,0,0-.08-.11v0h0l-14.55-11.63a.35.35,0,0,0-.17-.07h-.13L770.15,150h0l-.05,0h0l-15.79,8.59h0a.35.35,0,0,0-.14.14l-7.75,14.39-.21.21-23,22.92-30.45,21.94h0l0,0-21.66,19-42.8,12.94,20.33-14h0l0,0h0l0,0,11.83-12.59L674.72,213h0l0,0,0,0,15.29-17.69L715,180h0l.05-.06,0,0,0,0a.36.36,0,0,0,0-.05v0a.35.35,0,0,0,0-.06h0l.43-10.39h0a.35.35,0,0,0,0-.12.37.37,0,0,0,0-.06h0l0,0a.35.35,0,0,0-.09-.11L700,158.62l0,0,0,0-.09,0h-.1l-22.79,3.82h0a.35.35,0,0,0-.11.06l0,0h0L658.21,180l-23.32,15.25h0l-37.06,23.59-27.71,15-16-7.91-42.9-21.23-48.05-29,13-22.42,20.7-20.71,24.63-10.81h0L559.4,99.25h0l.08-.06,24-26.11,0,0,0,0,16.4-27.95a.36.36,0,0,0,0-.09v0h0l3.11-22.35a.37.37,0,0,0,0-.17L597.08,5l0,0,0,0h0l0,0,0,0,0,0,0,0h0L584.36,0h0l-.07,0a.35.35,0,0,0-.21,0h0L560.28,14.63h0l-.07.06L541.92,33.6l-16.35,5.34-.08,0-15.38,9.95-21.4,4.79h0l-.05,0-.08,0h0l-21.3,19.26L431.06,96.56,396.64,111l-23.39,3.19h0a.35.35,0,0,0-.16.08h0l-21.51,22.13-52,24.09h0l0,0L250,194.88h0l0,0-1.68,1.44-41.18,35.38v0l0,0-18.55,24-13.2,9.48L151.8,282.08l-21.94,7.51-.09,0h0L101.64,310l-52.58,29.8a.36.36,0,0,0,.26.66ZM691.79,160.62l6.61-1.11-13.5,10.13L677.78,163Zm38.1,30,15.87-15.8-6.39,17.46-14.83,3.67Zm53.8,4-10.94,14-.39-3.16-.76-6.07,5.45-2.24,6.89-2.83ZM759.44,321.92l-3,.57L769.65,313l18.16,3.53ZM523.21,358.41l-19.89,2.3,6.52-6.18,17.49,3.41ZM83,487l34.65-32.9,51.48,7.74Zm443-447.5,15.27-5L527.48,58.47l-.58-7.8Zm173.48,120,2.56,13,.47,2.41L696,173,685.66,170l9.17-6.88Zm98.36,6.05-1-.18,9.8-7.31,4,9.82Zm74.77,137.94-4.26-5.35,11.11,5.75-3.83,3.39Zm-119.41,19.6-28.83,6.1.56-5.65,1.57-15.9L754,323Zm-91,10.46,5.61-6,10.45,10.06-18.71-1.21ZM533.1,355.09l14.58-14.62,28.21,1.41L531,357.19Zm-31.45,5.76L442,363.24l51.11-15.94,4.41,7Zm-339.21,2.73L84.57,388,116,324.36l40.27,34ZM352.09,137l47.44-8.79L350.2,177.55l1.29-27.61Zm45.06-25.47,32.54-13.65L400.81,127ZM599,44.77l-15.83,7.74,8.7-15.26,3.27,3.46Zm53.52,150-16.21.42,21.36-14Zm6.11-14,10.41,2.38-15.51,11,3.8-10Zm12.05,1.07,6.45-18.43,7.17,6.72-9.75,8.38Zm32.18-5.44.3-.46,10.43,3.71L697.85,184Zm-29.25,36.49-13.22,9.75-3.08-12.54,9.44,1.62Zm1,26,4.78,1.27L669,243.32l-17.77,5.49,19.95-10.88Zm5.44-3.41,9.76-2.72-9.19,7-8.11-2.16Zm13.13-16.61,18.1-4.3L692.09,231,692,231l.12-1.16Zm77.65-68,21.6,4.44-18.25,2.1-1-2Zm14.25,41.5-.35-1.25L782,181h8.17l-4.87,11Zm-33,39.37-3.5,11.89-15.53,4.71,5.7-5Zm114.2,65.69-11.16,13.21-5.06-14Zm-38.49,8,1.26-1.7,6.35,8.29-15.07,3.48ZM629.44,331.55l-26.57,2.56-1.76-3.89-.35-.77,1.56.11Zm-451,108.09L181.85,429l28.76-6.74-39,38.2Zm-42.17-23.35,71.83-17.66-26.61,29.68Zm654.13-236h-8l12.79-13.21-4.7,13.2Zm1.54,42.91,9.93-10.9-2.3,20.42Zm91.87-3.56-14,.16-6.4.07,14.9-9.8,3.07,5.38Zm-25.88,13.86L839,221.65l22.83-1.07,2,16.6Zm5.2,4.11-1.84.08L837,238.78,838.18,222l7.82,4.9ZM827,249.05l-1.94.68-13,4.56,22.62-13.54-.93,1Zm-8.26,13.61,5,6.12-14.65-1.55-22.76-2.41,25.35-1.69Zm-150,46.92,10.46-1.84-11.41,18.82L649.38,313ZM465.51,322.47,377,356.82,428,325l12.86-.86ZM182.6,428.11l26.23-29.26,2.55,22.52-27.52,6.45ZM649,250.49l15.84-1.24-6.73,3.41-3.44,1.75-2.49-1.72Zm83.32-40.38,7.44-16.93,13.31,13.49Zm-.49.94,19.27,10.8-22,1.45-6.15.4,5.11-7.25ZM747,232.2,714.33,243.9l4.67-5.4.68-.79,1-.2ZM632.59,330.94l-24.88-4.5,9-10.84Zm-71.82-7.79-5.61-3.63,44.54,14.4-25.12-1.82Zm12.13,9.37-25.33,7.2-46.18-20.57,27.4,5.12ZM441.77,312.38l1-.93,23.55,10.23-37.44,2.52Zm16.11-118.19,20.51,14.1-10.63,26.3-5.86-23.93Zm81.55,65.12-21.77,21.42-4,3.91-11.49-36.3,31.88,9.39Zm85.08-7.42-12.93,9.42-12.51,9.12-26.74-7.07Zm195.27-3.07-11,6.58-7.86-3.23-9.26-3.81,43-8.46Zm-53.27,19.1,15.54-2.8L798,275.63Zm29.88,25.39-30.16-24.71,33.24,8.15Zm.69.2.61-3.26L800.17,277l25.64,10.65-5.87,1.2Zm-25.88-3.63-23.82,3.24,10-14.18,7.26-10.27,5.9,19.1ZM507.22,332l-37.48-9.93,14.53-1.76,14-1.7,1.71,2.57Zm-80-133.83-24.31,49.26,23.34-77.52,6.17,17.73ZM703.43,251l-5,3.41L683,249l28.7-3.72Zm85.08-2.27-15.35,6.8-2.71,1.2-3-2.42L762.22,250Zm-19.27,8.55-6.1,2.76-4.81,2.17-24.12-12.11.75.15Zm-57.62,58-20.4-28,23.42-9ZM377.07,300.77,356,338.59l-45.72-8.94Zm-38.49-86.3,35-15.09-5,10L349.09,248l-46.42-18.1Zm81.32,82.21-41.41,2.94L384.1,288l17.22-35.66Zm-19.12-44.88-22.91,47.44-28-50.35Zm-51-3.63,11.44-22.68,13.13-26,26.34,51.62Zm-40.72,80.67-16.42-50.26,55.76-29.25Zm38.25-75.69,1.92-3.88,28.12,50.58-67.6,29.21Zm123,27.71-27.71,29.72L421.12,297l78.51-47.54Zm-49.83,15.43-14.69-35-4-9.53,64.95-15.37ZM292.06,279l16.47,50.4-76.47-10Zm258.46,21-6.15,4.78-.21-16.38,20.08.94Zm33.83-20,6.65,7.89-25.32.73L571,264.13Zm39-11-.63,13.57-21.88-11.23-.46-.23,6.46-.59Zm-114.6,33.3,1.5-2.42,32.12,5.65-43.15,12.14Zm4.24-16.4-3.21,13.27L446.61,310l31.77-11.54ZM445.13,311l64.25-11-11.1,17.91-43-5.57Zm146.75-22.41,46.38,10.55-61.5,6.55ZM623,283.5l16.26,15.12-1.71-.39-43.87-10,24-3.88Zm-57.1,5.79,25.07-.72-15,17-2-3.23Zm9.36,16.48H575l-30-.67,20.1-15.62,6,9.62Zm-8.16.54,7.42.17-21.68,11.4-8.1-12.07Zm73.21-7.69-16.67-15.49L653.9,256l-.52,1.63Zm-40.95-27.29,22.61,11.61-29.6,4.79.7-1.64ZM571.82,264l26.84,7.09-7,16.43Zm-28.17,41-5-.88-27.11-4.77,31.9-10.9.18,14.11Zm-33-6.09,3.2-13.21,28.26,2.46ZM444,310.19l17.32-18.58,40.18-43.1,11.58,36.58Zm51.57,8-27.67,3.35-22.7-9.87Zm5.48-.34,27.71-7.79,15.11-4.25L552,318h-3.7Zm77.07-11.63L639,299.77l-22.38,14.92ZM641,298.59,646.64,281l8-25.1,8.5,23.78,2.65,7.42-8.49,3.93ZM763.36,268l-16,5.9-10.92-10Zm-78.66-11.4,11.85,3.55-8.63-.92-5.94-.63,1.57-1.15Zm-3.77,1.87-14.75-2.64-1.7-.21,19.13.89Zm-.39.66-3.85,11-20.78-14.88,10.16,1.28Zm-3.26,11.52L681,260l8.69,25.42Zm22.58-9.43L690.67,286l-9.13-26.72Zm-15-5.4-2.72-6.41,14.77,5.16Zm-29.49-.05,9.8,7,11.22,8-10,15.68-11-30.71Zm45.12,5.84,14,15.89-23.17,8.95Zm14.62,15.56-13.9-15.83,33.13,2.36-2.69,1.88Zm43.1-14.24,5.35,4.38-24.35-3.68Zm-1.29-.67-21.27.79-3.47-13.21,5.93,3Zm-24.61.58-29.18-2.08,14-2.66,2.22.69Zm-31.7-2.33-1.57-5.3,16,2.55Zm-.78-.12-13.37-4,11.83-1.23,1.17,3.95Zm-18.56-11.16,2.8,6.6-9-.42-17.78-.83,20.14-4.51Zm-4.36,22.11,13,15.38-23,.23Zm40.61,5,17.31-12.12-8.67,41.59-10.68-28ZM759.46,263l20,1.83-14.57,2.63Zm.26-.7,10.66-4.82,11.14,6.81ZM731.4,249.72l.11.41,3.35,12.76-4.61-1.44L718,257.63l5-3Zm-29.21-9.37,7.72-7.62,6.91,3.65,1.71.91-18.43,5.13Zm19.46-15.47,0,.22-2.37,11.74-4.64-2.45-4.05-2.14.85-.56ZM700,241.46l-1.3,1.28L682.43,240l26.19-7Zm-6,2.88-12.58,4.12H681l-10.35-.05,9.77-1.7Zm-18.51,4.81h2.8l-20.93,4.68,9.33-4.74Zm-132.12,38.4-29-2.53,25.52-25.11Zm-42.55-39.65L421.9,295.69l45.92-59.5,16.65,5.91Zm-99.57,2.61-26.38-51.71,50.77-29.29Zm-27.54-51.95-70.56,30.38,46.67-50ZM302,230.44l46.4,18.1-55.64,29.19,1.52-7.8Zm-67.32,86.29-3.09,2.08,7.68-39.75,51.81-.3Zm-3.54,4L255,381.27l-45.38,16.16Zm6.22,13.8L231.63,320l34.93,4.56,41.7,5.45-52.63,50.82Zm141.91-34.23,40.91-2.91L427.35,324l-21.84-10.75ZM421,297.79l19.07,12,2,1.28L428.1,324ZM554.3,317.9l21.63-11.38L614,314.85,578,316.69Zm93.59-5.44-29.83,2.16,22.28-14.85Zm42.59-25,8.71,11.94,11.32,15.53-43-27.24Zm45.12-23.32,2,1.86,9.23,8.42L727,305.28Zm12.08,10.47,11.81-4.37,4.35-1.61L747,292.4l.17-4.69Zm42.75-26,16.71,6.87-34.89,1.19Zm.75-.91L800,234l34.58,5.23Zm45.36-12.28-.23,3.3-4.63-.7-30.32-4.58,36.11-11.6ZM799,234.08l-8.75,13.69-1.5-.75-16.09-8.1L784,236.85Zm-15.17,11.26,5.17,2.6-26.9,1.29,9.52-10ZM761.13,250l6.53,5.34,1.38,1.13-19.58-4-14-2.87,24,.38Zm-31.37-.15-4.53,2.67L717,257.36l-16.29-2.6,25.66-4.34Zm-19.62-5.11L685.24,248l13.67-4.47,1.91.21Zm13-20.33,26.19-1.72L729.11,229l-4.25-3.28Zm5.32,5-8.42,7,2.36-11.71,3.62,2.79Zm-18.73,2.52-15.53-.36,26-6.59Zm-13,11.21-6.54,1.14-21.78,3.79,12.41-7.61Zm-44,12.94-5.35,4.79-23.88,21.4.63-13.46,27.63-12.3Zm-52.29,14.27,14.76-10.76L625.64,252l-2.21,16.28Zm-30.19-6-1.17,5.35-4.11,18.86-20.27-.94,12.25-11.16Zm-82.7-22-19.35-6.87L478.9,209l22,38.17Zm-20.26-6.92-61.62,14.59-3.18.75L451,200.39l6.07-6.31.06.23Zm-42.64-8.7-21.92,22.76,16.42-33.27L433,188.07l23.58,5.5Zm1.77-58.52-24.87-39.84,57,23.88L428.14,167.4Zm-37.52,21.62-14.43,8.32-23.77-19.5,73.85-9.39ZM292,278l-51.94.3,61.17-47.51Zm-53.58,1.82-7.61,39.42L197,323.79l23.38-24.85ZM230.58,320l-21.39,76.37L196.5,324.58Zm-21.08,78.23,44.45-15.83L212.06,420.9Zm158.09-79,10.47-18.76,9.49,4.67,39.25,19.33-69.95,14Zm131.86-.17,45.13,20.1-36.31-6.9-5.88-8.81Zm17.43,24.5-8-10.45L545.23,340l-9.49,1.18Zm-8.4-23.82-6.1-1.14,50.21.09,20.17,13.07Zm98.42,6.55-50.68-7.78L580,317.3l35.89-1.83-8.61,10.34Zm41.62-14.19-7.35-12.33-.21-.36,24.25-11.21-9.45,13.54ZM679.27,307l-30,5.28,17-24.31Zm36-27.72L725.82,307l-13.5,8.57Zm27.64,2.59,4-6.23-.43,11.78-.22,6-5.21,3.46-13.57,9Zm22.58-13,29.92,24.52L772,289.86ZM801,276.53l23.29-6.83,2.33,17.47Zm-1-.45-16.39-10.83,39.16,4.15Zm38.95-55.83,12.33-21.47,4.79,10.5Zm23.4-.56-5.22-9.92,20.14.1-7.1,4.67Zm-24.57,1.15-16.41-10,29.11-12.1Zm-65.95,17.51-5.92-11.8,32.09,7Zm-41.95,10.74L700.64,254l-.56.09,13.15-9,12.8,3.1ZM713,244.33,709.9,244l-9.15-1,5.71-1.59,12-3.34L714.16,243Zm7.8-7.57,3.18-2.66,5.17-4.33,20.82,1.1-9,1.81ZM693,231.14l19.7-16.81,8.83,9.58Zm14.35,1.45-2.12.57-22.79,6.1,9.27-7ZM624.2,268l2.22-16.41,27,3.4Zm-39.27-18.8,21,1.2,17.54,1-51.59,11.35,2-2Zm-40.87,38-3.52-27.65,29.46,4Zm-12.74-31-28.68-8.45,33.66-16.63,3.39,27.55ZM426.7,168.92l4.62-2.29,26.84-13.34L433,186.9ZM459,151.78,402.33,128l-.22-.09,60-4.75-1.87,17.6Zm10.68-40.52,29,7.54-.44,0-35.63,3.55-13.42-16.47ZM463.43,123l36.11-3.6L479.07,135.1Zm29-6.62-42-10.93,24.79-2,65.43-5.15-39.91,20.19Zm13.2-31.63,57.18-29.62L542.24,97.44Zm-.91.45,36,12.42-20.43,1.61-69.37,5.46,47.43-17.17Zm-41.94,38.21,15.72,12.12-18.7,15.87,1.18-11Zm117-70.32L565,53.92l25.83-16.2L582.09,53ZM591,36.77,564.09,53.62l4.07-23.76ZM561.54,55,506.29,83.64l10.63-11.91L527.38,60l6.72-1Zm-56.8,29.28-3.35-4.38L491.27,66.69l35-6.48Zm-.6.39-4.91,1.78-49.4,17.89L490.58,67l3.48,4.55Zm-56,21.06,13.62,16.72-59.23,4.69ZM302.7,228.38,326.09,166l23.13,12.54Zm-2.14,2L239.29,278l-1.92-42.64Zm-105.2,94.19-31.84,38.18-1-40.53Zm61.77,55.82,52-50.24,45.77,9-41.3,17.43Zm168.91-55-52.41,32.69-16.79-18.85Zm68.27,21L508,333.14l8,10.54-14,1.74Zm22.61-2.1,5.14-.64,22.46-2.8-33.86,12.56Zm88.64-17.47-5.39,1.86-37.32-8.42Zm1.52.24,4.81.87L627,330.65l-25-1.83Zm11.3-10.89-.82-.8,12.84-.93,17.32-1.25-14,17.78Zm56-17.63-6.82-10,33.28,21.07,8.82,5.58-29.54-8.28Zm70.22-3.16,1.82-1.21,8,28.25-27.43-15.33Zm2.49-1.48,6.11-.83,17.87-2.43-16,31.53Zm49.1.37-6.6,21.41-17.13-25Zm1.05,0,28.4-5.82L809.81,301l-5.38,4.29-6.92-10.64Zm31.09,9.35-8.89,12-14.07-9.5Zm-22.78,1.76,21.22-16.91.7,5.18,1.24,9.21-9.59,1Zm23.86-2.68-1.93-14.35,21.06,8-18.29,6.1Zm19.56-7-19.78-7.49-1.19-.45,15.17-6.47,2.37,5.9ZM784.89,264.2l23.87-8,9,5.81Zm-2.22,0-11.06-6.76,34.75-1.18-20,6.69Zm71-43.94-14.52.68,2.64-1.69,14.53-9.31,1.29,2.46,3.95,7.49Zm41.45-14.1-16,2.89,6.39-10.77,1.55,1.27Zm-11.94-5.43L878.31,209l-13.23-10.27,19.69-.63Zm-19.06-1.8,13.2,10.24-8.87,0-11.32-.06,2.69-3.91Zm-7.57,9.71,0,.06-4.71-10.31,11.57.36Zm-36,2.61,12.83,7.83,3.57,2.18-36,11.58,9.62-10.57Zm-50.09,28.14-7.31,7.7-2,2.13L750,244l9.92-2.25Zm-21.6,4.92,8.56,4,2.11,1-25.66-.41,3.56-1.08ZM752,222.6l.46,7.64-21.39-1.1Zm1.58-16.45-13.2-13.37,15.84-2.8-.34,2.07Zm1-1.78,2.33-14.22,13.54,8.92-16.18,7.23Zm16.21-5.93-13.62-9,12.29-15Zm-.15-24.85,24.18-7.23-13.37,13.82Zm25-8.5-20-7.12,18.84-2.17Zm-21.35-6.83,20.63,7.34-3.84,1.15-20.76,6.21.23-.85ZM769,173.84l-4.28,5.23-8.06,9.86-9.4-15.18,9.56,0Zm-13,15.44-4.71.83-11.16,2,6.54-17.88Zm-25.14,21.79-8.79,12.47-4.89-5.31-3.83-4.15ZM623.11,250.64l-38.17-2.18L571.39,235l31.85,9.62Zm-49.19-12.11,10.36,10.29-9.72,10.11-3.41,3.54-.65-27.33Zm-33.47,20.29-3.36-27.31,32.68,31.32ZM501.8,247.34l-22.14-38.48,56,21.73Zm-44.07-54.12,5-16.42,15.13,30.28Zm30-63.84,12.36-9.46-3.7,12-15.91,3Zm54.76-31.13,14.89.94-51.84,17.75ZM563.83,54.7l17.63-.94-37.59,42Zm4.82-25.45L581.89,19l9.2,17.1Zm-121.22,76L402.3,126.48l29-29.17Zm-46.89,23,25.11,40.21L350.79,178l9.42-9.42Zm-80,50.6-19,50.76-63.31,5,86.95-68Zm-82.15,100-42,44.64-4.52-41.89-2.69-25,44.58,20.14Zm-75.79,42.7,8.68-33.9,24.12,36.25Zm8-33.95-8.69,33.93-5.58.23-39.09,1.64Zm-8.76,34.65,1,40.72-46-38.83Zm34.09,2.88,12.73,72.07-44.9-33.51ZM181,429.33l-10.41,32L119,453.6Zm117.16-38.44-41.5-9.5,27.2-11.48,70.48-29.75L308.2,381.81Zm170.9-68.24,38.28,10.14-14.05,13.59-13.43-13.16Zm25.56,24.43,9.29-1.16L516,344.41l-3.31,4.83-3.05,4.45-14.78-6.53Zm82.65-5.84-27.53-1.38,24.51-7,2.14,5.92ZM602,333.9l-21.71-7-20-6.45,34.44,7.77,5.18,1.17,1.08,2.38Zm110.47-17.6,13.37-8.49-2.08,21ZM771.15,292l-1.93,20.35L756,322Zm.45,2.9.35-3.73,17,24.77-19-3.69Zm18.77,20.63,6.4-20.76,7.1,10.92-6.37,4.65Zm14-9.31,14,9.46-27.54.41Zm25.34-3,5.19-1.73L848.5,297l-12.41,14.63Zm33.6-19.78.34,1.34,3,11.85L850.45,296l7.55-7.31Zm.82.33,10,8.62-3.58,2.16-3.18,1.92-2.77-11Zm-1.43-.74-13,12.54-4.59-11.42-1.22-3,7.15.73Zm-19.41-2.81-17.52-10.76,26.64-1.12Zm-.69.42-15.26,6.5L825,269.94l15.65,9.61Zm-26.28-27.17,10-3.51-7.54,11.75-9.14-5.89Zm68.28-34-3.53-6.17-1.85-3.24L903.77,219l-5.83.19ZM864.26,198l-2.63-3.82-6.43-9.35,28.62,12.55Zm-.88,0-11.67-.36,2.66-12.73Zm-39.28,4.93,2.53-6.23,23.09,1.53-28.53,11.86Zm-4.39,8.2-17.19,18.9-2.24,2.47,1.54-13.67.82-7.29,16.36-.39Zm-28.45,11.66L767.8,225.4,801,212.12Zm0,.72,7.6,9.48-31.44-6.85,20.65-2.28Zm-20.21,15L750,243.31l15.15-16.63Zm-39.53,10.26-17.12-4.14,3.71-1.33,33.37-12-12,10.44ZM752,221.54l-19.23-10.78,20.63-3.42-.69,7Zm2.12-14.23,17.33,2.4-18.72,11.72.48-4.85Zm17.36-9.44-1.31-23.73L781,180.76l-.25.45Zm19.5-17,17.73-10.54-22.61,21.59Zm-20.7-10.69-.79,2.93h-3.18L748,173l25.45-14.5Zm-38.63,39.6-7.74-13L739,193.07Zm-.53.52-16,2.74-1.74.3,9.94-16.08Zm-53,31-11.62,7.12-6,.47-9.31.73,23.14-7.15Zm-25,12.94-21.28-2.68-1.49-.19,17.5-.77ZM649.86,224l-6.55-13.21-.73-1.46,3.46.16,10.26.48-3,6.45Zm-35.76-3,4.12-3.57,10,10.9-5.43-1L609.43,225Zm39.19-25.46,23,2.09-19.2,11.45Zm3.09,13.71-13.67-.64,9.94-12.69Zm-31.82,21.49-7.74,3.8-2.83-3.4-4.46-5.36L628,229Zm-7.78,4.61,25.13.68L607,239Zm2.1-18.26,22.26-7.49-12,18.68Zm-10.37,8.58,7.38,8.87-6.11-.58-21.14-2,6.39-2Zm37.64,9.75-28-.75,8-4,3-1.47,6.08,2.22Zm-10.46-16,6.27-9.76,7.39,14.9-19.39,3.78Zm34.86-36,17,1.45-10.06,11.91Zm19,.81,12.36-7.55-5,7.65Zm-1.71-.06-17-1.45,13.84-11.9Zm-18-.63,5,9.68,2,3.78-2.93-.27-20.06-1.83,5.4-3.84Zm-27.75,24.78-6.39-12.33,16.38-.43Zm-7-12,6.46,12.47-22.21,7.47Zm-35.88,23.18,18-2-8.55,7.41Zm-10,13.3,26,2.46-10.65,4-14.34-6Zm17.78,7.74,15.15,3.32,3.52.77.15,6-17.5-9.39Zm6.21.63-6.26-1.37,38.91-3.31-19.87,7.48Zm76.31-46.46-11.1,2.19L688,185.35Zm12.73-19L688.49,184l-1.67-7.09-1.46-6.23,12.94,3.82Zm-94.43,49.57-19.8,6.27,10.16-11.77Zm-3.37,14.75,3.26,1.75,15.15,8.12-47.64-14.39,21.06,3.26ZM462.13,176.44l-5.06,16.49-23-5.37,18.14-7.18Zm-27.29,9.15,6-8,18.66-24.89,6.31.29,9.09.42-9.95,8Zm40.75-32.9-4.05-.19L460.27,152l12-10.2,6.25-5.3L477,145.06Zm22.33-23.25,3.1-10.1,11.6,1.4,7.4.89-22.77,10Zm69.53-99.61-4.08,23.79L542.88,34.15ZM542.2,34.49,562.82,54.1,527.89,59.2l2.37-4.1Zm-16,25-34.37,6.37,18.44-16.14ZM481.16,74.64l-31.31,28.71,17.86-29.7,21.53-6.42Zm-32.94,30-.1.17-16.17-8L466.36,74.5ZM326.47,165.41l24.87-27.7-1.87,40.16Zm-14,10.18L237.71,234l12.73-38.55,73.29-28.71ZM238.58,278.13l-39-17.61-10-4.52,47.06-20.45Zm-121.89,44.7,13.53-32.56,39.54-3.06Zm63.73,106L167,434l-48.76,19.07L135,416.7Zm31.68-6.84,11.47-2.47L239.88,416,209.2,442.21Zm.9-.93,41.52-38.14-9,21.2L240.93,415l-18.45,4Zm28.87-6.38,13.84-32.73,21.8,5,19.59,4.49ZM356.13,339.5,373,358.4l-72.83,31.67Zm107.13-15.39,3.63-1.41-17.09,25-10.67,15.62-64-5Zm-23.07,38.95,13.59-19.9,14.11-20.66L491,345.1l1.65,1.61-18.95,5.91Zm62.18-2.43-8.15-12.95,2.67,1.18,12.2,5.39-6.16,5.85ZM511,354l35.08-13-16.58,16.62-2.41-.47Zm67-12.84-3-8.33,25.61,1.86-19.53,5.6Zm24.7-6.34,22.4-2.16L584.78,340Zm31.62-3.58,9.8-12.41,4.26-5.4,6.68,15.5,3.14,7.29-14.07-2.94Zm24.6,4.83-.44-1-9.14-21.22,4.47,3.31,13.5,10-4.79,5.13Zm9.38-9.09,11.18-18.44-.57,28.67-.17-.17ZM699,332.18l-18.17-24.3,1.88.53,28.61,8-1.35,1.73ZM875.6,301.11l-7.78-4,6.71-4,4.83,10Zm4.36,1.55-3.66-7.6-1.15-2.39,6.87-3.94-2,13.67Zm-5-10.7L873,281.57l-.67-3.56,9.57,10Zm-3.43-14.44,2.63,14.06-10.07-8.72,7.18-5.15Zm-8.76,4.88L844,280.49l9.09-11.85,2.44,3.48Zm-34.4-33.77,8.46-9.12,24.65-1.13-4.1,1.27Zm36.18-11.46-1.95-16.59,20.85-.23-1.23,1.09Zm20-16.84,13.85-.45,5.48-.18L866.23,236.6Zm20.14-1.78-23-8.22-1.89-.68,16-2.89,2.6,3.47Zm.71-.26L896.94,207l9,2.77Zm-2.42-10.15-6.49-2,4.65-12.29L905.73,209Zm-2.4-14.84-4.72,12.47-9.67-7.91,8.74-2.77Zm-74.9,3.93-5,12.37-.33.82-15.64.37-1,0,1-.62Zm-53.56,11.84-17-2.35,14.45-6.46,1.35-.61.46,3.69ZM772,198.41l1.14-2,8.25-14.79,3.22,11.64-.09,0Zm38.24-29.82L791.38,179.8l4.9-13.77,9,1.65ZM806,157.76,796.33,165l-1.16-9.13,4,.72Zm-11-2.67-.52-2.06-1.57-6.17,12.62,10.08Zm-82.57,58.43-17.9,4.25,27.54-19.85Zm-21.24,18.07L682.49,234l-9.88,2.75,19.84-17.37-.75,7.54Zm-64.93,12.93,19.42-7.31L626.45,250.5ZM648,235.35,630.53,229l18.92-3.69-.06.45Zm2.14-10.21,9-1.4-10.37,11Zm.29-.77,6.27-13.66,2.58,10.48.43,1.74-5.71.89Zm23.76-12.13-16.37-2.8,19-11.35-2.64,14Zm3.45-14.43,0-.13,11.18-2.2-13.77,15.93ZM690.07,194l-.23-1.49-1.17-7.6,7.67.11-.13.19Zm2.59-2.45,4.59-6.58,15.18-4.25-21.29,13ZM633.49,197,618,216.59l-18.42,2.07h-.12l1.46-.93Zm-57.09,36.79,10.38-1.3,14.86,6.24-28.93-4.48Zm-6.63.75.66,27.9-19-18.17L537.61,231,552,232.62Zm-34.63-5-54.76-21.23,30.54-3,10.83,10.82Zm-25.2-24.83-30.89,3-15.49-31,10.87,6.56Zm-47.5-29.22-9.31,3.69-18.22,7.21,39.69-31.89L463.94,173ZM478.07,143l1.31-7.18,13.73-2.55,2.49-.46L476.45,152Zm32-23.33-7.73-.93,53.43-18.3-22,12.66-12.49,7.93ZM559,98.57l-15.82-1,37.57-41.95L577,63Zm23.67-45,16-7.84L583.52,71.6ZM599.6,42.44l-.23,1.65-7.07-7.46,9.89-12.81ZM596.23,6.06l-4.59,29.49-9.18-17.05,6.75-6.09ZM583.65,2.12l-.79,6.43-1.19,9.67L569.07,28,582.4,4.34Zm-16.31,27-24.19,4.25,17.23-17.82ZM510.93,49.26l14.44-9.34L526.79,59ZM325.76,165.12l-24.86-4.44,49.41-22.9-5.77,6.43Zm-1.18.52-71.69,28.08,46.9-32.51Zm-89,69.6-45.73,19.87,17.6-22.73Zm-47.11,21.9,7.08,65.72-24-36.12,1.62-2.83ZM129.16,291l-13.38,32.2L102.39,310.3l13-9.41Zm34.14,73.3,28.4,21.2,16.58,12.38-72.8,17.89,4.83-8.94Zm9.4,96.18,16-15.72,22.54-22.09-2.9,20.23-.27.13Zm507-122.85.58-29.3,18.14,24.26L685.44,336Zm20.14-5.29,12.14-15.52,11.37,12.64-1.57.19Zm137.1-20.48,5.15-6.07,7.44-8.77,5.08,14-.52,0Zm19.08-1,11.11-13.15,3.55,4.47,4.35,5.47-.33.06ZM871.06,277l-7.48,5.37-7.72-11-1.64-2.34,10.56,5Zm-21.37-9.14-25,1-5-6.06L827,264Zm-29.77-6.5,1.73-2.7,5.75-9,33.45-10.35-17.25,9.32Zm80.18-68.64-14.39,4.57L884,186l.74.31Zm-16.83-6.94,1.7,11.38-28.86-12.65,16.18.75ZM851,197.62l-23.12-1.54,25.83-11.44Zm-87,29.26-5.5,6-8.75,9.6,2.62-8.92.81-2.77.06-.06.06-.06,5.86-2.1Zm-10.83,2.92-.45-7.48,17.69-11.08-4.85,5.22Zm38.92-83.45,2.19,8.6L772,150.37l14.1-2.83Zm-22,4.52,3.38,6.61-17.43,1,7.57-4.11Zm-15.42,8.44,17.85-1.06-24.94,14.21,1.26-2.35ZM668,238.89l-20.09,11-8.73.39-10.18.45,27.76-8.39Zm46.52-59.74-9.33-3.31-1.19-.42,8.75-4.47,2.15-1.1-.29,7.14Zm-11.17-4.21-2.24-11.41-.75-3.83,14.22,9.52ZM676.17,164l-6.48,18.51-10.53-2.41ZM572.83,233.2l23.63-12.75-9.81,11.38L572,233.66Zm-36.06-3-14.09-14.08-9.82-9.81,55.28,27.35ZM560.71,96.78,582,54.73,582.63,68l.22,4.7Zm41.62-74.32-2.67,3.46-7.26,9.4,2.72-17.45L596.87,6.6l2.33,6.76Zm-19.85-5,2-16.64L590.06,3l6,2.28Zm.76-16.11L567.9,28.63l-7-13.56,13.77-8.45ZM509,49.92,490.89,65.73l-1.69-11.39,16.6-3.72Zm-20.43,4.86,1.7,11.4-21.34,6.37,12.53-11.33Zm-92.08,57L400.08,127l-8.51-4.09-17-8.19,13.28-1.81ZM373.38,115l3.11,1.5,23,11-5.8,1.07-40.87,7.57,11.71-12.05Zm-124,81.32-12.66,38.34-28.58-2.9,7.56-6.5Zm-61.83,61L180.87,269l-9.94,17.36L160,283.86l-7.16-1.63,25-18ZM152,282.78l2.86.65,13.86,3.15-35.94,2.78,9.93-3.4ZM133.93,417.27,117.34,453.4l-39.26.83Zm167.53-27,66.59-29,5.58-2.43,35.1,2.76,27.92,2.2-87.79,17.06ZM101.78,310.7l13.41,12.9L51.66,339.1Z"/><path class="cls-35" d="M81.35,353.39,23.46,393.83a.36.36,0,0,0,.31.64l44.44-13.57a.36.36,0,0,0,.22-.18l13.45-26.87a.36.36,0,0,0-.53-.46Zm-13.5,26.86L25.73,393.12,80.6,354.79Z"/><path class="cls-35" d="M9.81,391.45a.36.36,0,0,0,.4,0l40.59-32.66a.36.36,0,0,0-.19-.64h0l-36.23-1.69a.36.36,0,0,0-.37.31L9.63,391.09A.36.36,0,0,0,9.81,391.45Zm4.85-34.28,34.95,1.63L10.46,390.3Z"/><path class="cls-35" d="M.13,454.09a.36.36,0,0,0,.44,0l69.84-52.83L56.13,443.69a.36.36,0,0,0,.15.42.37.37,0,0,0,.44,0l56.42-55.48a.36.36,0,0,0-.21-.61h-.14L71,399.94h0L18.61,415.25a.36.36,0,0,0-.22.19L0,453.66A.36.36,0,0,0,.13,454.09Zm57.16-11.6,14.12-41.91,40.23-11.52ZM19,415.9l50.38-14.72-68,51.46Z"/></g></g></svg>