<svg width="48" height="48" viewBox="0 0 48 48" fill="none" xmlns="http://www.w3.org/2000/svg">
<path fill-rule="evenodd" clip-rule="evenodd" d="M27.5355 12.5355C26.5979 13.4732 25.3261 14 24 14C22.6739 14 21.4021 13.4732 20.4645 12.5355C19.5268 11.5979 19 10.3261 19 9C19 7.67392 19.5268 6.40215 20.4645 5.46447C21.4021 4.52678 22.6739 4 24 4C25.3261 4 26.5979 4.52678 27.5355 5.46447C28.4732 6.40215 29 7.67392 29 9C29 10.3261 28.4732 11.5979 27.5355 12.5355ZM4.73223 19.7322C5.20107 19.2634 5.83696 19 6.5 19H41.5C42.163 19 42.7989 19.2634 43.2678 19.7322C43.7366 20.2011 44 20.837 44 21.5C44 22.163 43.7366 22.7989 43.2678 23.2678C42.7989 23.7366 42.163 24 41.5 24H6.5C5.83696 24 5.20107 23.7366 4.73223 23.2678C4.26339 22.7989 4 22.163 4 21.5C4 20.837 4.26339 20.2011 4.73223 19.7322ZM4 31.5C4 30.837 4.26339 30.2011 4.73223 29.7322C5.20107 29.2634 5.83696 29 6.5 29H41.5C42.163 29 42.7989 29.2634 43.2678 29.7322C43.7366 30.2011 44 30.837 44 31.5C44 32.163 43.7366 32.7989 43.2678 33.2678C42.7989 33.7366 42.163 34 41.5 34H6.5C5.83696 34 5.20107 33.7366 4.73223 33.2678C4.26339 32.7989 4 32.163 4 31.5ZM4.73223 39.7322C5.20107 39.2634 5.83696 39 6.5 39H41.5C42.163 39 42.7989 39.2634 43.2678 39.7322C43.7366 40.2011 44 40.837 44 41.5C44 42.163 43.7366 42.7989 43.2678 43.2678C42.7989 43.7366 42.163 44 41.5 44H6.5C5.83696 44 5.20107 43.7366 4.73223 43.2678C4.26339 42.7989 4 42.163 4 41.5C4 40.837 4.26339 40.2011 4.73223 39.7322Z" fill="black"/>
</svg>
